<?xml version="1.0" encoding="UTF-8"?>
<svg id="Layer_2" data-name="Layer 2" xmlns="http://www.w3.org/2000/svg" viewBox="0 0 715.21 195.27">
  <defs>
    <style>
      .cls-1 {
        fill: #81694a;
      }

      .cls-2 {
        fill: #e2b04e;
      }

      .cls-3 {
        stroke: #c37450;
        stroke-miterlimit: 10;
      }

      .cls-3, .cls-4 {
        fill: #c37450;
      }

      .cls-5 {
        fill: #fff;
      }

      .cls-6 {
        fill: #9da86a;
      }

      .cls-7 {
        fill: #f5ebd3;
      }

      .cls-8 {
        fill: #dd9a79;
      }
    </style>
  </defs>
  <g id="Layer_1-2" data-name="Layer 1">
    <g>
      <path class="cls-7" d="M180.66,47.01C135.35,1.18,57.48,18.48,36.21,79.19c-22.82,65.14,37.05,129.02,103.55,112.36,64.75-16.22,88.25-96.64,40.9-144.54Z"/>
      <polygon class="cls-5" points="0 .21 0 0 235.67 0 235.67 195.27 235.46 195.27 235.46 .21 0 .21"/>
      <path class="cls-6" d="M180.66,47.01c47.35,47.9,23.85,128.32-40.9,144.54-66.5,16.66-126.37-47.22-103.55-112.36C57.48,18.48,135.35,1.18,180.66,47.01ZM60.2,165.35c45.78,45.29,124.56,22.94,138.58-39.86,14.96-67.01-54.66-121.15-116.23-91.41-50.25,24.27-62.35,91.7-22.35,131.27Z"/>
      <path class="cls-7" d="M60.2,165.35c-40-39.57-27.91-106.99,22.35-131.27,61.57-29.74,131.2,24.4,116.23,91.41-14.02,62.8-92.8,85.15-138.58,39.86ZM174.42,50.31c-39.42-38.07-104.68-26.16-128.35,22.97-29.76,61.79,27.97,128.92,93.57,111.21,59.51-16.07,79.46-91.03,34.78-134.18Z"/>
      <path class="cls-6" d="M174.42,50.31c44.68,43.15,24.73,118.11-34.78,134.18-65.6,17.72-123.32-49.41-93.57-111.21,23.66-49.14,88.93-61.04,128.35-22.97ZM184.16,148.18l.52-.21c18.07-28.75,14.57-66.79-8.19-91.86-32.94-36.27-90.05-34.11-119.81,4.86-19.44,25.45-21.32,60.05-4.12,87.21.36.57.67,1.12,1.05,1.68,3.02,4.46,5.89,7.56,9.67,11.35.41.41.84,1.08,1.47,1.68.92.87,1.72,1.39,2.52,2.1.03.03.02.34.22.51,1.46,1.28,2.97,2.52,4.51,3.71.23.14.47.21.74.2.14.61,1.5,1.59,2.1,1.68.52,1.12,2.22,2.02,3.3,2.69,9.5,5.95,24.23,10.96,35.5,10.98.92,0,.77-.46.83-.44.27.08.45.37.95.42.14.01.28-.01.42,0,7.25.6,18.62-.93,25.49-3.42.33-.12.65-.2.79-.57,1.48.27,3.5-.98,4.9-1.52.23-.09.33-.36.36-.37,4.91-1.95,6.88-3.01,11.35-5.68.69-.41,1.47-.73,2.31-1.26,1.64-1.04,3.36-1.93,4.93-3.16,1.25-.97,2.91-2.21,3.68-3.57.59-.01,1.95-1.2,2.44-1.67.23-.22.25-.6.3-.64.65-.63,1.26-1.25,1.89-1.89,3.64-3.68,6.34-6.53,9.04-11.14.26-.44,1.09-.83.84-1.68Z"/>
      <path class="cls-7" d="M184.16,148.18l-28.23,5.09c-1.05.38-.43,1.79-.18,2.56l.53.13c8.69-2.07,17.44-3.94,26.11-6.08.25-.06.78-.37.92-.02-2.69,4.61-5.4,7.46-9.04,11.14l-17.87-.84c-.02.75-.51,2.32.52,2.52l15.45.21s-.07.42-.3.64c-.49.47-1.85,1.66-2.44,1.67-.43,0-.88-.21-1.36-.22-7.64-.14-14.86-.27-22.5.64-.69.08-5.18.64-5.36.84-.11.12-.04.53.29.44,6.49,1.45,13.12,2.53,19.47,4.49.33.1.7.13.84.53-.84.53-1.63.85-2.31,1.26-1.06-.47-2.35-.74-3.49-1.03-9.11-2.33-18.35-4.31-27.69-5.53-.61-.28-.72-.61-.78-1.21.29-.21.01-.66.47-.59,2.33.36,5.78,1.12,8.04,1.01,2.53-.12,5.63-.9,8.23-1.23,3.01-.38,6.27-.37,9.14-1.16.74-6.13-1.34-12.56-4.56-17.76-4.67-7.56-12.88-13.74-21.74-15.16l-.21-1.05c2.04-13.23,14.78-20.53,26.91-23.23,1.32-.29,2.87-.39,4.11-.72.29-.08.65-.03.73-.43-5.74-.78-11.5.17-16.92,2.1-.62,0,1.15-2.12.73-2.52-2.44.02-3.83,2.74-5.58,4.2s-4,2.43-5.93,3.74c-1.11.76-4.28,3.7-5.09,3.94-2.55.77-2.35-3.08-2.59-4.57-.04-.26-.08-.96-.46-.79-.82.44-2.14,3.15-2.95,3.16s-1.7-2.8-2.73-2.95c-.51.11-.28,2.39-.37,3-.8,5.23-4.72.41-6.82-1.07-1.76-1.24-3.84-2.29-5.52-3.52-2.31-1.69-3.95-4.82-6.95-4.92-.17.81.5,1.16.84,1.79l-.31.32c-5.1-1.58-10.52-2.81-15.87-2.11l.21.52c14.39,2.13,28.16,9.63,30.69,25.12-14.86,2.25-27.08,16.04-27.09,31.18l.5.34c8.81-.05,17.61-.08,26.38.63,0,.14.02.3,0,.42-.1.02-.2.11-.21.21-.04.34.09.73-.09,1.06l-.64.21c-11.36-1.05-22.7-.94-34.06-.42-3.26.15-6.57.07-9.78.83-.8-.71-1.6-1.23-2.52-2.1,5.34-.34,10.71-.33,16.08-.64,1.06-.2.79-1.34.43-2.1l-17.98,1.05c-3.78-3.79-6.65-6.89-9.67-11.35.33-.28.61-.09.96-.03,9.07,1.74,17.98,4.49,27.11,5.92.77-.15.87-1.66.63-2.32l-29.75-5.25c-17.2-27.16-15.32-61.76,4.12-87.21,29.76-38.97,86.88-41.13,119.81-4.86,22.76,25.07,26.26,63.11,8.19,91.86l-.52.21ZM106.92,40.37c-1.91,2.47-1.97,5.48,0,7.95.83,1.04,3.62,3.47,4.51,1.6,1.88-3.93-.66-8.22-4.51-9.55ZM126.82,50.6c.66.68,3.48-1.24,4.06-1.83,2.08-2.13,2.38-6.11.38-8.39-3.49,1.16-5.46,4.14-5.1,7.83.04.45.4,2.13.66,2.39ZM119.57,41.04c-.77-.31-2.19,1.37-2.68,1.95-3.96,4.65-4.94,9.9-2.29,15.52.53,1.12,3.26,5.42,4.5,5.38.81-.02,3.44-3.64,3.92-4.48,3.03-5.28,2.8-10.18-.71-15.13-.3-.42-2.55-3.16-2.74-3.24ZM97.91,43.56c-2.6.46-.06,3.57,1.12,4.45,2.59,1.93,8.22,2.07,4.69-2.38-1.43-1.8-3.56-2.47-5.82-2.07ZM137.65,43.56c-1.89.27-4.05,2.17-4.32,4.1-.36,2.6,4.49,1.34,5.83.35.74-.55,2.78-3.29,2.23-4.09-.38-.56-3.04-.46-3.74-.36ZM101.09,62.6c3.21-6.38.22-13.64-6.76-15.32-1.98,3.46-2.18,7.11-.1,10.59,1.34,2.24,4.22,4.56,6.86,4.74ZM139.24,61.68c4.29-1.86,6.23-5.37,5.79-10.05-.08-.82-.79-4.04-1.59-4.31-1.37-.46-5.3,2.98-6.13,4.11-2.32,3.15-2.12,7.18-.69,10.66.24.35,2.02,0,2.44-.14.12-.04.12-.24.18-.27ZM84.51,49.71c-.15.5,0,2.63,0,3.36,0,.84,1.7,2.94,2.42,3.47,1.1.81,4.93,2.38,4.96.11.04-3.15-2.11-5.99-5.11-6.9-.45-.14-2.09-.62-2.27-.04ZM153.67,49.62c-4.5-.32-7.87,3.5-7.32,7.94,2.28.87,5.82-1.03,6.81-3.11.68-1.42.78-3.3.51-4.83ZM109.66,51.99c-1.06-1.03-3.81-2.2-5.26-1.73-.67.22-.28,2-.12,2.58.53,1.97,2.41,3.9,4.39,4.43.58.15,2.69.44,2.93-.25.42-1.21-1.03-4.17-1.94-5.05ZM126.38,57.35c4.08,1.14,8.28-2.77,7.66-6.92-4.26-1.05-7.89,2.75-7.66,6.92ZM77.8,52.99c.06,3.62,4.05,6.45,7.46,5.04.34-3.86-4.04-6.17-7.46-5.04ZM157.2,52.81c-1.84.28-4.06,2.43-4.32,4.31-.15,1.1.28,1.21,1.32,1.31,3.23.33,6.26-2.18,6.11-5.48-.25-.34-2.57-.23-3.12-.14ZM79.22,76.47c1.05-1.62,2.03-3.5,2.5-5.38,1.03-4.09.25-8.21-2.56-11.4-.72-.82-4.06-3.8-5.02-3.59-.19.04-1.66,3-1.85,3.45-2.17,5.02-1.78,9.17,1.82,13.39.67.78,4.15,4.1,5.11,3.53ZM163.3,56.37c-.85.22-3.92,3.06-4.57,3.86-3.31,4.08-3.41,9.18-1.24,13.84,1.09,2.34,1.25,3.09,3.61,1.57,6.39-4.12,7.67-11.76,3.68-18.1-.37-.59-.66-1.37-1.48-1.16ZM117.89,74.78c.63-.65.17-5.54-.09-6.64-1.34-5.64-6.55-9.93-12.38-10.13-.98-.03-1.05.48-1.14,1.37-.77,7.56,3.12,13.38,10.51,15.14.62.15,2.71.67,3.1.26ZM120.28,74.79c.38.59,4.58-.66,5.37-.98,6.6-2.63,9.32-8.89,7.86-15.71-9.13-.22-15.04,7.93-13.23,16.69ZM62.78,59.93c-.3.1-.26.27-.33.51-.72,2.45.29,5.58,2.2,7.24,1.03.89,4.79,2.96,5.13.73.52-3.38-.95-6.25-3.97-7.77-.71-.36-2.29-.96-3.03-.7ZM175.52,59.93c-4.76.1-8.46,4.7-6.71,9.34,4.93.43,8.03-4.89,6.71-9.34ZM102.46,68.66c-.3-.59-.41-1.14-.84-1.8-4.14-6.42-10.97-7.62-17.76-4.51,1.71,7.44,7.81,12.33,15.62,11.16.82-.12,3.76-.74,4.18-1.3s-.56-2.62-.88-3.31c-.06-.14-.28-.17-.32-.25ZM145.01,60.8c-4.8.6-8.38,4.8-10.08,9.05-.87,2.19-1.03,2.32,1.25,3.03,5.84,1.79,11.75.6,15.48-4.37.62-.83,3.25-5.31,2.76-6.08-2.77-1.27-6.35-2.01-9.42-1.63ZM64.7,70.05c-1.47.19-3.28,1.2-4.34,2.19.97,2.41,3.94,4.23,6.58,4.04,1.06-.08,5.03-1.51,4.73-2.76-1.44-2.22-4.26-3.81-6.96-3.46ZM172.13,70.05c-1.59.14-4.78,1.76-5.32,3.32-.26.76,1.6,1.91,2.21,2.19,1.63.74,3.64.89,5.32.27.91-.34,4.1-2.64,3.41-3.74-.07-.11-1.01-.75-1.22-.88-1.26-.78-2.92-1.3-4.39-1.16ZM95.44,89.12c1.22-5.85.03-11.71-5.27-15.01-.86-.54-4.93-2.51-5.66-2.13-.78.41-1.11,5.12-1.05,6.11.4,6.25,5.79,11.09,11.98,11.04ZM143.19,89.09c5.86.1,11.47-4.64,11.95-10.59.09-1.11-.09-6.03-1.05-6.53-.7-.36-4.68,1.34-5.53,1.84-5.34,3.11-6.98,9.54-5.37,15.28ZM119.41,81.97c-.3.07-.34-.03-.51-.22-.53-.58-1.16-2.26-1.9-3.15-7.05-8.55-20.83-4.59-19.63,7.23,1.02,10.05,13.5,16.05,19.42,23.04.49.58,2.03,3.17,2.52,3.17.31,0,.35-.16.5-.36.61-.81,1.09-1.76,1.81-2.6,6.11-7.12,18.75-13.31,19.46-23.63.21-3.04-.26-5.52-2.24-7.87-5.82-6.9-16.37-3.2-19.43,4.39ZM72.49,76.57c-.47.03-2.43.25-2.69.46-.71.54.37,3.96.69,4.79,2.19,5.71,8.63,9.13,14.57,7.31.53-7.28-5.25-13.02-12.56-12.56ZM163.51,76.78c-5.69.64-10.24,5.92-10.27,11.62,0,.75.78.96,1.43,1.09,5.37,1.12,11.07-2.2,13.09-7.2.4-.98,1.33-4.13,1.02-5.02-.27-.78-4.42-.59-5.27-.49ZM69.77,88.04c.9-5.81-5.21-11.06-10.81-9.23-.48,5.7,5.13,10.83,10.81,9.23ZM179.22,78.61h-3.78c-2.65,0-5.87,3.82-6.63,6.19-1.03,3.24-.51,3.77,2.84,3.47,3.56-.32,6.16-2.62,7.31-5.93.23-.66,1.1-3.48.26-3.74ZM62.38,88.96c-2.1.33-4.44,2.07-5.83,3.63-.55.63-2,2.2-1.49,2.95,1.25,1.84,6.03,2.61,8.09,2.38,2.75-.31,6.5-3.1,7.66-5.58.62-1.33-.32-1.55-1.39-2.11-1.97-1.04-4.83-1.62-7.04-1.27ZM172.76,88.97c-1.1.13-5.05,1.4-5.21,2.58-.12.81,1.13,2.31,1.69,2.92,2.99,3.31,7.13,4.35,11.34,2.73.53-.2,2.61-1.2,2.85-1.57.47-.75-1.24-2.67-1.79-3.26-2.46-2.69-5.18-3.85-8.88-3.4ZM150.83,94.67c-1.28,1.41-4.18,6.36-3.63,8.17.2.68,2.57,1.11,3.25,1.17,6.82.69,12.3-3,14.59-9.32.26-.73,1.09-2.52.28-3.02s-4.78-1.11-5.85-1.1c-2.98.03-6.65,1.93-8.63,4.1ZM91.83,102.95c-1.43-8.85-10.09-14.87-18.79-11.11-.5.82,1.3,4.61,1.83,5.53,3.41,5.9,10.7,8.32,16.95,5.57ZM99,104.03c1.41-4.21.77-8.88-3.15-11.43-.55-.36-3.3-1.74-3.77-1.5-1.04.54-1.15,4.55-1,5.63.53,3.82,4.21,6.84,7.92,7.29ZM139.41,103.81c3.73,0,7.54-3.4,8.08-7.11.16-1.07-.02-5-.96-5.59-.44-.28-2.89.88-3.43,1.21-4.09,2.48-5.22,7.1-3.69,11.49ZM61.71,100.8c-1.22,1.33-.52,1.72.83,2.82,3.94,3.2,9.4,2.64,12.82-1.04.9-.97-1.15-2.39-1.93-2.91-3.82-2.56-8.56-2.32-11.72,1.13ZM168.97,98c-1.56.21-3.84,1.5-5,2.57-1.77,1.64-.92,2.12.86,3.35,4.52,3.13,9.26,2.07,12.78-1.91-1.57-3.04-5.31-4.47-8.64-4.01ZM102.97,101.59c-.33.04-1.41.15-1.55.34-.52,5.96,5.37,11.06,11.17,9.28.48-5.36-4.18-10.2-9.62-9.62ZM137.25,101.97c-6.12-1.93-11.64,3.02-11.29,9.19,5.87,1.37,11.42-3.14,11.29-9.19ZM53.61,102.36c-.09.39.22.5.42.73,2.39,2.86,5.33,5.37,7.87,8.1.7.44,1.23.08.64-.64-1.72-2.12-4.85-4.84-6.94-6.72-.21-.19-1.85-1.62-1.99-1.48ZM182.27,104.26l-6.41,5.46c-.12.42-1.55,1.39-.95,1.79l.96-.1c1.81-1.89,3.76-3.69,5.46-5.68.17-.2,1.09-1.32.94-1.47ZM75.01,105.16c-4.37.43-8.02,3.07-9.31,7.3-.22.72-.95,3.48-.33,3.9,4.22.91,8.61-.18,11.12-3.83,1.29-1.87,2.37-4.67,1.73-6.91-.53-.74-2.37-.53-3.21-.45ZM173.39,115.98c.11-7.02-6.41-12.55-13.31-10.47-.36,3.14,1.27,7.16,3.8,9.04s6.66,2.98,9.51,1.43ZM87.67,111.93c.13-1.04-.1-2.29,0-3.36-1.54-.82-4.05.03-5.61.7-3.53,1.52-5.57,4.64-6.11,8.4-.42,2.91-.04,2.83,2.96,2.54,4.4-.41,8.19-3.83,8.75-8.28ZM150.73,108.56v3.15c0,3.45,3.5,7.08,6.68,8.03,1.13.34,5.28,1.24,5.31-.46.08-3.87-2.64-8.41-6.17-10.03-.89-.41-5.49-1.76-5.82-.7ZM100.04,113.11c-6.29-2.42-14.62,2.01-13.96,9.23,6.6,2.41,13.48-2.33,13.96-9.23ZM141.02,112.51c-.98.04-2.76.02-2.68,1.28.22,3.32,3.72,7.43,6.78,8.58,1.43.54,6.37,1.07,7.31-.12.63-.8-.83-4.26-1.41-5.15-2.18-3.39-6.1-4.74-10.01-4.58ZM136.86,117.92l-4.38,10.23c0,.68,1.78,1.54,2.27,1.23.25-.28.37-.63.52-.96.62-1.34,2.87-7.17,3.01-8.36.1-.91-.54-1.95-1.42-2.14ZM168.6,118.13c-.47-.44-3.12,1.82-3.58,2.2-3.59,2.99-7.05,6.53-10.51,9.67-1.02.93-8.07,6.84-8.17,7.38.11.6,1.08,2.06,1.72,1.93.28-.24.64-.42.9-.67,5.59-5.15,12.24-11.65,17.32-17.26.36-.39,2.69-2.9,2.31-3.26ZM101.11,118.34c-.51-.34-1.74,1.34-1.58,1.89l3.09,8.7.33.31,2.15-.63-.02-.65-3.96-9.61ZM69.8,118.55l.2.96c5.06,5.23,10.21,10.45,15.36,15.54.68.67,3.5,3.77,4,4,.97.45,1.59-.86,2.07-1.51l-.17-.39c-4.9-4.5-9.82-8.97-14.73-13.44-.95-.86-1.77-1.88-2.73-2.74-.55-.49-3.35-3.05-4-2.41ZM192.78,124.01c-1.56.55-3.1,1.29-4.57,2.04-11.63,5.89-23.62,12.42-35.52,18.31-1.02.52-1.03,1.08-.45,2.01.85,1.38,1.94.59,3.06-.03,7.63-4.23,15.09-8.92,22.63-13.32,4.59-2.68,9.27-5.1,13.71-7.95.36-.23,1.21-.56,1.15-1.06ZM84.89,147.1c.19-.11.94-1.76.86-2.14l-.32-.32-40.02-20.2c-.1.44.23.48.49.67,4.83,3.46,11.24,6.39,16.47,9.39,6.66,3.81,13.57,8.37,20.32,11.84.48.25,1.75,1.03,2.21.77ZM148,124.64l-2.22-.02-5.77,7.7c.66,1.01,1.43,2.15,2.52,1.04s4.22-5.89,5.01-7.39c.22-.42.53-.8.46-1.32ZM89.77,124.85l.24.91c.84,1.03,4.87,7.7,5.58,7.89s2.53-1.09,1.71-1.94c-1.88-1.66-3.31-5.13-5.11-6.66-.87-.74-1.44-.33-2.43-.2Z"/>
      <path class="cls-4" d="M112.26,130.53c-2.53-15.49-16.3-22.99-30.69-25.12l-.21-.52c5.35-.71,10.77.53,15.87,2.11l.31-.32c-.34-.63-1.01-.98-.84-1.79,3,.1,4.64,3.24,6.95,4.92,1.68,1.23,3.76,2.28,5.52,3.52,2.1,1.48,6.02,6.3,6.82,1.07.09-.61-.14-2.89.37-3,1.03.15,1.92,2.96,2.73,2.95s2.12-2.72,2.95-3.16c.39-.17.42.53.46.79.24,1.5.04,5.35,2.59,4.57.82-.25,3.98-3.19,5.09-3.94,1.93-1.31,4.13-2.24,5.93-3.74s3.13-4.18,5.58-4.2c.41.41-1.36,2.53-.73,2.52,5.42-1.93,11.18-2.88,16.92-2.1-.07.4-.44.35-.73.43-1.24.33-2.79.43-4.11.72-12.12,2.7-24.87,10-26.91,23.23-.08.55-.42,1.43-.44,1.56-.11.79.32,1.81.24,2.29-.03.16-.39.04-.44.44-.14,1.05.25,2.06.24,2.96-.1,9.52-.02,19.17,1.03,28.69.07.6.17.94.78,1.21,9.34,1.21,18.58,3.19,27.69,5.53,1.14.29,2.42.57,3.49,1.03-4.47,2.67-6.44,3.73-11.35,5.68l-18.29-4.83c-.11,1.24.24,2.56,1.22,3.34,2.88.77,5.79,1.42,8.66,2.23.91.25,2.44,1.02,3.15,1.16-.14.38-.46.45-.79.57-6.86,2.49-18.24,4.02-25.49,3.42.73-1.54,1.26-3.12,1.62-4.79s.91-4.69.92-6.24c0-.33-.03-1.04-.54-.94l-2.42,11.98c-.5-.05-.68-.34-.95-.42-.06-.02.09.44-.83.44-11.26-.02-25.99-5.04-35.5-10.98-1.08-.67-2.78-1.58-3.3-2.69,2.5.4,6.62-.09,9.36,0,6.67.2,13.51.7,20.15,1.5,1.62.2,3.39.7,5.06.82.99-.09,1.01-1.96.95-2.73-7.32-.71-14.61-1.22-21.97-1.47-5.5-.19-10.27-.04-15.66.21-.27.01-.51-.05-.74-.2-1.54-1.19-3.04-2.43-4.51-3.71-.2-.17-.19-.48-.22-.51,3.21-.76,6.52-.68,9.78-.83,11.36-.51,22.7-.63,34.06.42l.64-.21c.18-.34.05-.73.09-1.06.1-.03.19-.11.21-.21.02-.12,0-.28,0-.42.33-10.45,1.91-21.77.21-32.16ZM107.98,114.84c-.33-.28-1.04-.89-1.39-1.03-.27-.11-.73-.3-.64.22.96.59.84,1.91,2.1,1.79l-.21.84c.53,0,1.45.46,1.79.84.37.41.34.89.63,1.26,4.9,6.18,6.16,13.69,6.21,21.55,0,.8-.37,1.59-.23,2.42.79.25.8-.66.85-1.36.46-6.69-.82-17.72-5.59-22.81-.36-.38-.87-.34-1.27-.63.34-1.12-.11-.7-.52-1.15-.53-.58-1.15-1.43-1.75-1.94ZM119.2,117.6c-.22,1.93.16,4.23,0,6.2.52.12.46-.19.56-.58.22-.83.67-6.2.27-6.57h-.63c.13.36-.19.72-.21.95ZM124.84,125.46s-.21-.51-.15-.87c.04-.24,1.38-3.05,1.61-3.46.68-1.24,1.77-2.18,2.54-3.35-.09-.75-.72-.48-1.12-.06-.53.56-2.45,3.83-2.89,4.68-1.65,3.17-2.67,8.04-2.91,11.6-.1,1.56.07,3.17,0,4.73h.63c.02-1.5.08-3.03.21-4.52.19-2.12.59-6.55,1.51-8.37.17-.33.51-.32.56-.38ZM123.82,119.39c-.29.03-.65-.13-.86.13-.4.51-1.8,4.7-1.45,5.12.46.09.48-.22.64-.51.28-.5,1.86-4.56,1.67-4.74ZM116.02,119.84c-.16-.11-.58,0-.81-.03-.28.27.99,2.8,1.25,3.27.16.29.18.61.64.52.23-.27-.86-3.6-1.08-3.75ZM119.2,133.68v12.19c.68.08.78-.11.85-.72.28-2.42.21-8.03-.01-10.52-.03-.28-.11-.55-.19-.82l-.65-.12ZM116.89,146.71h-.84c-.02,3.21-.12,6.37-.2,9.57-.03.98-.24,2.17-.24,3.14,0,1.19.69,1.64.86.63.25-1.5.37-3.88.43-5.46.11-2.62-.1-5.27,0-7.89ZM122.56,150.29c-.4-.06-.56.17-.63.53-.11.59-.02,5.14.21,5.36,1.08-.05.42-1.13.41-1.78-.02-1.37.03-2.74,0-4.11ZM118.78,154.8v11.35c.33.43.52.41.84,0v-11.35c-.33-.43-.52-.41-.84,0ZM126.07,176.83c-1.42-2.79-2.31-7.93-2.78-11.4-.17-1.27-.06-2.78-.32-4.1-.05-.27-.17-.6-.52-.53-.46.1-.33,1.43-.32,1.78.23,5.34,1.9,14.36,4.95,18.8.27.39,1.58,1.2,1.35.13-.13-.57-1.24-1.86-1.61-2.59-.34-.66-.46-1.5-.76-2.08ZM115.83,166.68c-.45-.08-.5.2-.63.53-.96,2.5-.82,5.88-2.1,8.58-.38.79-.1.26-.25,1.04-.02.12-.86,1.86-1.01,2.16-.31.62-2.44,3.53-2.11,3.88.65.09,1.2-.6,1.56-1.06,3.24-4.14,4.1-10.02,4.53-15.12ZM122.63,181.76c-.61-2.01-.62-5.35-1.33-7.19-.12-.32-.18-.61-.63-.53-.14,1.62.99,8.79,2.1,9.57s.3-1.33.2-1.63c-.05-.14-.32-.17-.34-.22Z"/>
      <path class="cls-4" d="M169.65,165.21c-.78,1.36-2.44,2.59-3.68,3.57-1.58,1.23-3.29,2.12-4.93,3.16-.14-.39-.5-.43-.84-.53-6.36-1.96-12.99-3.05-19.47-4.49-.33.08-.4-.32-.29-.44.19-.2,4.67-.76,5.36-.84,7.64-.91,14.86-.79,22.5-.64.47,0,.93.23,1.36.22Z"/>
      <path class="cls-7" d="M72.74,169.41c5.39-.26,10.16-.4,15.66-.21,7.35.25,14.65.76,21.97,1.47.06.77.04,2.65-.95,2.73-1.67-.12-3.44-.62-5.06-.82-6.64-.8-13.48-1.3-20.15-1.5-2.74-.08-6.86.41-9.36,0-.6-.1-1.96-1.07-2.1-1.68Z"/>
      <path class="cls-2" d="M53.61,149.87c-.38-.57-.69-1.11-1.05-1.68l29.75,5.25c.24.66.14,2.17-.63,2.32-9.12-1.43-18.04-4.18-27.11-5.92-.34-.07-.62-.25-.96.03Z"/>
      <path class="cls-2" d="M184.16,148.18c.25.85-.58,1.24-.84,1.68-.14-.35-.67-.04-.92.02-8.67,2.14-17.42,4-26.11,6.08l-.53-.13c-.25-.77-.88-2.18.18-2.56l28.23-5.09Z"/>
      <path class="cls-7" d="M147.37,178.87s-.13.28-.36.37c-1.39.54-3.41,1.8-4.9,1.52-.72-.13-2.25-.9-3.15-1.16-2.87-.81-5.78-1.46-8.66-2.23-.98-.78-1.33-2.11-1.22-3.34l18.29,4.83Z"/>
      <path class="cls-2" d="M174.28,161.01c-.63.64-1.24,1.26-1.89,1.89l-15.45-.21c-1.03-.2-.54-1.77-.52-2.52l17.87.84Z"/>
      <path class="cls-2" d="M64.75,162.9c-.63-.6-1.06-1.27-1.47-1.68l17.98-1.05c.36.76.63,1.89-.43,2.1-5.36.31-10.73.3-16.08.64Z"/>
      <path class="cls-8" d="M115.84,184.76c-.14-.01-.28.01-.42,0l2.42-11.98c.51-.1.54.61.54.94,0,1.55-.58,4.65-.92,6.24s-.89,3.26-1.62,4.79Z"/>
      <path class="cls-2" d="M126.14,129.48l.21,1.05c8.86,1.42,17.07,7.6,21.74,15.16,3.21,5.2,5.3,11.64,4.56,17.76-2.87.79-6.13.78-9.14,1.16-2.6.33-5.69,1.11-8.23,1.23-2.26.11-5.7-.64-8.04-1.01-.46-.07-.18.39-.47.59-1.05-9.52-1.13-19.17-1.03-28.69,0-.9-.39-1.9-.24-2.96.05-.4.42-.28.44-.44.09-.49-.35-1.5-.24-2.29.02-.13.35-1.01.44-1.56Z"/>
      <path class="cls-2" d="M112.26,130.53c1.7,10.39.12,21.71-.21,32.16-8.78-.71-17.57-.68-26.38-.63l-.5-.34c.01-15.14,12.23-28.94,27.09-31.18Z"/>
      <path class="cls-1" d="M119.41,81.97c3.06-7.59,13.61-11.29,19.43-4.39,1.98,2.35,2.45,4.83,2.24,7.87-.7,10.33-13.35,16.51-19.46,23.63-.72.84-1.2,1.79-1.81,2.6-.15.2-.19.36-.5.36-.5,0-2.03-2.59-2.52-3.17-5.92-6.99-18.41-12.98-19.42-23.04-1.19-11.82,12.58-15.78,19.63-7.23.73.89,1.36,2.57,1.9,3.15.17.19.21.28.51.22ZM134.62,96.13c2.4-2.46,4.31-4.6,5.29-8.06,3.72-13.15-12.12-18.29-18.99-7.64-.29.45-1.51,3.8-2.15,2.89-1.98-7.25-12.18-11.73-17.97-5.98-7.14,7.09.35,16.73,5.99,21.76,4.29,3.82,9.27,6.98,12.51,11.87,4.19-5.86,10.35-9.74,15.31-14.85Z"/>
      <path class="cls-2" d="M192.78,124.01c.06.5-.79.82-1.15,1.06-4.44,2.84-9.11,5.27-13.71,7.95-7.54,4.4-15,9.09-22.63,13.32-1.11.62-2.2,1.41-3.06.03-.57-.92-.57-1.49.45-2.01,11.9-5.89,23.89-12.42,35.52-18.31,1.47-.75,3.01-1.49,4.57-2.04Z"/>
      <path class="cls-2" d="M84.89,147.1c-.45.27-1.73-.52-2.21-.77-6.75-3.48-13.66-8.03-20.32-11.84-5.23-3-11.64-5.92-16.47-9.39-.26-.19-.58-.22-.49-.67l40.02,20.2.32.32c.08.38-.66,2.02-.86,2.14Z"/>
      <path class="cls-2" d="M168.6,118.13c.38.36-1.95,2.87-2.31,3.26-5.08,5.61-11.73,12.11-17.32,17.26-.27.25-.62.43-.9.67-.64.13-1.62-1.33-1.72-1.93.1-.54,7.15-6.46,8.17-7.38,3.46-3.15,6.92-6.69,10.51-9.67.46-.38,3.11-2.65,3.58-2.2Z"/>
      <path class="cls-2" d="M69.8,118.55c.64-.64,3.44,1.92,4,2.41.96.85,1.78,1.87,2.73,2.74,4.92,4.48,9.84,8.95,14.73,13.44l.17.39c-.48.65-1.1,1.97-2.07,1.51-.5-.23-3.31-3.33-4-4-5.16-5.09-10.3-10.31-15.36-15.54l-.2-.96Z"/>
      <path class="cls-1" d="M119.57,41.04c.2.08,2.44,2.82,2.74,3.24,3.51,4.95,3.74,9.85.71,15.13-.48.84-3.11,4.46-3.92,4.48-1.24.03-3.97-4.26-4.5-5.38-2.64-5.62-1.67-10.87,2.29-15.52.49-.58,1.91-2.26,2.68-1.95ZM119.41,62.85c5.29-5.31,6.83-11.6,2.4-18.06-.4-.58-2.23-3.11-2.88-2.94-1.92,2.1-3.95,4.7-4.71,7.5-1.32,4.83.88,10.12,4.35,13.5-.1-1.84.5-3.94.2-5.77-.16-.96-1.46-2.28-1.25-3.48.53-.61,1.1,2.18,1.47,2.1l.21-3.78.32.21.1,5.68c.7-.41.88-1.37,1.29-1.96.14-.2.37-.59.6-.24-.05,1.31-2.1,2.87-2.1,3.99v3.26Z"/>
      <path class="cls-1" d="M145.01,60.8c3.07-.39,6.65.35,9.42,1.63.49.77-2.14,5.25-2.76,6.08-3.73,4.97-9.64,6.17-15.48,4.37-2.28-.7-2.13-.83-1.25-3.03,1.69-4.25,5.28-8.45,10.08-9.05ZM135.6,72.09c8.03,2.73,15.89-.8,18.06-9.11-7.7-4.02-16.15-.35-18.27,8.06l4.57-2.37c.25-.64,1.68-2.75,2.27-2.88.27-.08.41.04.31.31-.26.66-1.36,1.24-1.47,2,.18.17,3.57-1.65,4.19-1.8.29-.07.72-.32.64.22l-5.25,2.63c-.11,1.11,2.12.42,2.31.63v.63c-.32.34-3.29-.4-3.9-.32-.2.03-3.59,1.84-3.46,2Z"/>
      <path class="cls-1" d="M91.83,102.95c-6.25,2.74-13.54.33-16.95-5.57-.53-.92-2.34-4.71-1.83-5.53,8.69-3.76,17.36,2.26,18.79,11.11ZM87.52,100.19c.53.64,2.64,1.39,3.4,1.96-.81-3.93-3.18-7.33-6.69-9.28s-6.85-1.67-10.57-.61c-.37.5,1.26,3.82,1.64,4.49,3.13,5.59,8.7,7.51,14.88,6.24.09-.38-.12-.41-.35-.59-.33-.26-2.66-1.6-2.95-1.69-.45-.13-.81.13-1.18.1-.96-.08-1.92-.24-2.87-.34.03-.17-.04-.58,0-.63.11-.11,2.62.34,3.04.42l.11-.42c-1.28-.73-3.13-1.64-4.27-2.56-.28-.22-.64-.36-.56-.8.18-.16,1.47.47,1.73.63.17.1.23.4.39.5,1.1.66,2.26,1.16,3.24,2.03.24-.9-1.23-1.39-1.47-1.89-.12-.24-.34-.95.2-.84.85.34,1.79,2.7,2.28,3.29Z"/>
      <path class="cls-1" d="M150.83,94.67c1.98-2.17,5.65-4.07,8.63-4.1,1.07,0,5,.58,5.85,1.1s-.01,2.29-.28,3.02c-2.29,6.33-7.77,10.01-14.59,9.32-.68-.07-3.04-.5-3.25-1.17-.55-1.81,2.35-6.76,3.63-8.17ZM148.42,102.99c5.54,1.21,11.41-.43,14.47-5.39.44-.71,2.45-4.8,2.05-5.33-7.93-3.1-15.57,1.84-17.15,9.79.95-.44,2.73-1.3,3.46-2s1.6-2.94,2.56-3.33c1.38-.55-.9,1.78-.98,1.97-.1.26.05.41.31.31.24-.09,1.64-1.02,2.06-1.26.14-.08.17-.33.31-.41.25-.14,1.84-.95,1.95-.85-.07.98-1.4,1.11-1.98,1.5-.23.16-.29.47-.49.61-.75.51-1.73.85-2.36,1.57.78.34,1.62-.08,2.41-.11.3-.01.85-.17.74.32-1,.91-3.39.18-4.2.4-.63.17-2.59,1.72-3.15,2.23Z"/>
      <path class="cls-1" d="M102.46,68.66c.04.08.25.11.32.25.32.69,1.29,2.76.88,3.31s-3.36,1.17-4.18,1.3c-7.81,1.17-13.91-3.72-15.62-11.16,6.79-3.12,13.62-1.92,17.76,4.51.43.66.54,1.21.84,1.8ZM102.8,71.04c-2.17-8.14-10.35-11.82-18.05-8.38-.47.76,2.01,4.84,2.62,5.63,3.72,4.84,9.62,5.56,15.22,3.8l-10.51-5.26.11-.42,4.52,1.68-1.26-2.31c.68-.63,2.3,2.63,2.74,3.03.57.52,3.05,1.69,3.86,2.02.25.1.42.28.75.2ZM97.02,68.1v.21c.14-.07.14-.14,0-.21Z"/>
      <path class="cls-1" d="M79.22,76.47c-.96.56-4.44-2.75-5.11-3.53-3.61-4.22-3.99-8.37-1.82-13.39.2-.45,1.66-3.41,1.85-3.45.97-.21,4.3,2.77,5.02,3.59,2.81,3.19,3.59,7.3,2.56,11.4-.47,1.88-1.45,3.77-2.5,5.38ZM78.63,67.05c1.45.2-.22,2.42-.38,3.09-.13.54.4,4.17.64,4.74.13.32.2.47.47.15.25-.29.88-1.67,1.05-2.1,2.64-6.66.36-12.64-5.86-15.96-4.49,6.27-3.65,12.6,2.18,17.54.39.33.97.84,1.47.94.12-.13-.41-3.17-.56-3.52-.19-.43-1.47-.86-1.33-1.73l1.26.63-.84-5.88c.59-.1.35.13.47.46.42,1.18.57,2.69.58,3.95.59.1.35-.13.47-.46.21-.57.35-1.24.37-1.85Z"/>
      <path class="cls-1" d="M117.89,74.78c-.39.41-2.48-.12-3.1-.26-7.39-1.76-11.28-7.58-10.51-15.14.09-.89.17-1.41,1.14-1.37,5.84.2,11.04,4.49,12.38,10.13.26,1.1.71,5.99.09,6.64ZM117.52,73.57c.66-7.99-4.27-14.37-12.4-14.92-.33,3.36-.2,6.7,1.57,9.67,2.04,3.43,6.1,5.43,9.99,5.88-.9-.85-1.96-2.85-2.95-3.46-1.05-.65-2.88-.71-3.77-1.9-.09-.42.18-.38.48-.27.75.27,1.56,1.2,2.46,1.22.18-.17-2.59-3.49-2.83-4-.13-.27-.33-.7.2-.62,2.1,2.44,3.86,5.24,6.1,7.57.16.17.96,1.07,1.16.84Z"/>
      <path class="cls-1" d="M120.28,74.79c-1.82-8.76,4.09-16.91,13.23-16.69,1.46,6.82-1.26,13.08-7.86,15.71-.79.31-4.99,1.57-5.37.98ZM120.67,69.68c-.14,1.22.1,2.64,0,3.89l7.26-8.4.51.3-3.57,4.63c.96.2,2.09-1.23,2.84-1.37.47-.09.35.27.29.61-1.11.81-2.91,1.14-3.96,1.82-.43.28-1.84,1.92-2.22,2.41-.16.21-.41.27-.31.63,8.06-.96,12.95-7.49,11.56-15.55-5.35.58-9.7,2.82-11.57,8.09-.26.75-.75,2.22-.84,2.95Z"/>
      <path class="cls-1" d="M163.3,56.37c.82-.21,1.11.57,1.48,1.16,3.99,6.34,2.72,13.98-3.68,18.1-2.36,1.52-2.52.78-3.61-1.57-2.17-4.65-2.08-9.76,1.24-13.84.65-.8,3.72-3.64,4.57-3.86ZM159.77,75.46c3.83-1.79,6.82-6.31,6.74-10.62-.05-2.53-1.36-5.65-2.88-7.65-.71-.21-3.51,2.4-4.06,3.04-3.74,4.31-3.66,10.66-.43,15.23-.04-1.51.88-3.54.85-4.95-.02-.89-1.21-2.48-.84-3.67,1.08.05.31,1.94.94,2.52.58-1.3.63-2.82,1.1-4.16.12-.34-.11-.56.47-.46-.02,1.44-.4,2.86-.65,4.29-.11.6-.62.92-.19,1.81l.84-.42c.19.94-.89.93-1.21,1.63-.41.9-.34,2.43-.68,3.42Z"/>
      <path class="cls-1" d="M143.19,89.09c-1.6-5.73.04-12.17,5.37-15.28.85-.5,4.83-2.2,5.53-1.84.96.5,1.14,5.41,1.05,6.53-.48,5.95-6.09,10.69-11.95,10.59ZM143.38,82.5c-.17,1.4,0,3.36,0,4.83,0,.03.24.72.42.42.36-.35,2.09-3.2,2.21-3.67.31-1.21-.07-2.73.31-4,.27-.34.38.02.42.31.12.95-.14,1.9-.11,2.84.68-.63,2.08-3.71,2.74-3.99.34-.14.43.2.22.44l-4.96,8.6c3.46-.33,7.44-2.98,8.87-6.16,1.24-2.76,1.03-6.51.36-9.38-3.79.43-7.41,2.57-9.17,6.04-.46.9-1.21,2.76-1.32,3.72Z"/>
      <path class="cls-1" d="M72.49,76.57c7.31-.47,13.09,5.27,12.56,12.56-5.94,1.82-12.38-1.6-14.57-7.31-.32-.83-1.4-4.25-.69-4.79.27-.2,2.22-.43,2.69-.46ZM79.78,88.91c1.38.19,3.1-.14,4.52,0-.09-.59-1.86-2-2.32-2.2-.91-.38-2.16-.15-2.99-.33-.12-.03-.28-.64-.78-.42-.34-.26.03-.39.32-.42.89-.11,1.58.38,2.42.32l-4.83-3.79c-.11-.49.43-.35.68-.26.47.16,1.04.75,1.52,1l-.21-1.26c.83.54.81,1.35,1.24,2.12l5.17,3.98c-.59-5.86-4.82-10.19-10.81-10.31-1.2-.02-2.28.32-3.48.22.5,3.53,1.59,6.63,4.43,8.91,1.2.97,3.62,2.23,5.13,2.43Z"/>
      <path class="cls-1" d="M95.44,89.12c-6.19.05-11.57-4.78-11.98-11.04-.06-.99.27-5.7,1.05-6.11.73-.38,4.8,1.6,5.66,2.13,5.31,3.3,6.49,9.15,5.27,15.01ZM95.02,87.86c.36-2.91.37-5.4-.8-8.13-1.69-3.92-5.39-6.27-9.49-7.01-1.38,5.09-.34,11.06,4.48,13.91.62.37,4.39,1.98,4.76,1.64l-4.83-8.31c-.1-.37.16-.43.42-.21.78.66,1.79,2.53,2.31,3.47.35.06.23-.51.22-.74-.03-.46-.59-1.93.09-1.99.78,1.14.31,2.8.63,4,.21.8,1.6,2.72,2.21,3.36Z"/>
      <path class="cls-1" d="M163.51,76.78c.85-.1,5-.29,5.27.49.31.89-.62,4.05-1.02,5.02-2.03,5-7.72,8.32-13.09,7.2-.65-.13-1.43-.34-1.43-1.09.02-5.7,4.58-10.98,10.27-11.62ZM168.18,77.56c-7.09-1.28-13.56,2.64-14.08,10.09l5.16-3.99.83-1.48.1.63c.11.13,2.29-1.52,1.89-.53-.31.76-3.92,2.68-4.62,3.58l2.83-.53c.34.72-1.21.95-1.7,1.03-.53.09-1.11-.08-1.62.07s-2.39,1.77-2.88,2.27c7.5,1.56,13.69-3.63,14.09-11.14Z"/>
      <path class="cls-1" d="M75.01,105.16c.84-.08,2.69-.29,3.21.45.64,2.24-.45,5.04-1.73,6.91-2.51,3.65-6.9,4.74-11.12,3.83-.62-.42.11-3.18.33-3.9,1.3-4.23,4.94-6.87,9.31-7.3ZM77.15,105.73c-.98.26-2.05.09-3.02.23-5.05.72-8.16,4.89-8.33,9.85,6.3,1.24,11.71-2.79,11.98-9.25l-3.18,2.2c-.06.64-.23,1.93-.92,2.21-.98.4.92-1.86,0-1.68-.64.68-1.85,1.96-2.63,2.42-.25.14-.72.3-.63-.21l1.89-1.69c.19-.43-.76-.19-.32-.74.22-.28,1.89-.71,2.49-1.08.83-.5,1.97-1.56,2.66-2.28Z"/>
      <path class="cls-1" d="M173.39,115.98c-2.86,1.54-7.01.43-9.51-1.43s-4.16-5.9-3.8-9.04c6.9-2.08,13.42,3.46,13.31,10.47ZM166.14,115.33c.49.22,2.79.66,3.4.7s2.83.02,3.18-.42c-.24-6.09-5.17-10.44-11.27-9.89.82.74,1.84,1.82,2.75,2.4.61.39,2.59,1.02,2.72,1.28.25.5-.72.2-.63.42.44.57,1.35.95,1.26,1.79-.4.09-.5-.22-.74-.42-.39-.32-1.87-1.79-2.1-1.89-.88-.36.6,1.86-.2,1.47-.54-.27-.84-1.91-1.15-2.42-.48-.78-2.05-1.52-2.74-2.2.08,3.81,1.92,7.09,5.31,8.84.12.06.14.32.21.35Z"/>
      <path class="cls-1" d="M100.04,113.11c-.48,6.9-7.36,11.64-13.96,9.23-.66-7.22,7.67-11.65,13.96-9.23ZM86.93,122.12c.61.19,3.69,0,4.63,0,3.22,0,7.01-4.31,7.62-7.3.05-.27.2-.87-.26-.68l-7.68,4.83c-.11-.45.25-.47.48-.67.96-.87,2.2-1.42,3.09-2.37l-2.1.1c-.83-.74,3.14-.88,3.37-.94.84-.21,1.97-1.21,2.73-1.69-4.42-.95-9.6.78-11.45,5.15-.25.6-1.23,3.32-.42,3.57Z"/>
      <path class="cls-1" d="M172.76,88.97c3.7-.45,6.42.71,8.88,3.4.54.59,2.25,2.51,1.79,3.26-.24.38-2.32,1.37-2.85,1.57-4.21,1.62-8.35.58-11.34-2.73-.56-.62-1.81-2.11-1.69-2.92.17-1.18,4.12-2.45,5.21-2.58ZM168.18,91.85c2.63,4.56,7.22,6.75,12.34,4.66,1.02-.42,2.53-.84,1.93-2-2.45-4.75-7.84-5.94-12.58-4.02-.35.14-1.09.4-1.26.73,1.18.18,2.11.86,3.31,1,1.08.12,2.17-.42,3.2-.15l-.84.63c.8.3,2.71.32,2.94,1.26l-5.25-1.05c.06.58.67.69.94,1.26.14.28.2.59-.2.42-.58-.24-1.63-1.97-2.01-2.2-.49-.29-1.88-.26-2.52-.53Z"/>
      <path class="cls-1" d="M141.02,112.51c3.91-.16,7.83,1.19,10.01,4.58.57.89,2.03,4.35,1.41,5.15-.94,1.2-5.88.66-7.31.12-3.06-1.15-6.56-5.26-6.78-8.58-.08-1.26,1.7-1.24,2.68-1.28ZM152,121.91c-.66-6.44-6.37-9.52-12.4-8.61,1.8,1.66,3.91,2.2,6.31,2.31.05,1.01-1.8.05-2.31.31.69,1.19,2.43,1.39,3.36,2.53l-.32.32-7.46-4.63c1.39,6.02,6.7,9.57,12.82,7.77Z"/>
      <path class="cls-1" d="M101.09,62.6c-2.64-.18-5.53-2.5-6.86-4.74-2.08-3.47-1.88-7.13.1-10.59,6.98,1.69,9.97,8.94,6.76,15.32ZM100.07,55.7v3.47c0,.18.68,1.92,1.05,2,.95-3.72.99-7.35-1.78-10.3-.67-.72-3.9-3.15-4.74-2.63-1.64,3.2-1.57,7.34.74,10.21.92,1.14,3.24,2.95,4.64,3.35.31.09.36-.02.31-.31s-.78-2.18-.95-2.41c-.52-.7-1.76-.69-1.57-1.9.18-.2,1.44,1.2.46-1.41-.23-.62-1.12-1.2-.26-1.53l1.58,3.15c.2-.47-.48-1.73.52-1.68ZM98.7,57.81c-.21.15.11.29.21.41.21-.14-.1-.28-.21-.41Z"/>
      <path class="cls-1" d="M150.73,108.56c.33-1.07,4.93.28,5.82.7,3.53,1.62,6.25,6.16,6.17,10.03-.03,1.7-4.18.8-5.31.46-3.19-.96-6.68-4.58-6.68-8.03v-3.15ZM151.37,109.09c-.61,6.26,4.31,11.45,10.63,10.31-.2-5.71-3.88-10.31-9.79-10.51.66.71,1.6,2.06,2.41,2.53.54.31,1.21.08,1.59.72l-.84.21c.43.88,2.2,2.2,2.52,2.95.11.25-.06.42-.31.31-.79-.34-1.58-1.78-2.32-2.31l-.1,1.15c-1.09.19-.81-1.87-1.17-2.61-.31-.65-2.12-1.97-2.61-2.74Z"/>
      <path class="cls-1" d="M62.38,88.96c2.21-.35,5.07.23,7.04,1.27,1.07.57,2.02.78,1.39,2.11-1.16,2.48-4.91,5.27-7.66,5.58-2.06.23-6.84-.54-8.09-2.38-.5-.74.94-2.32,1.49-2.95,1.38-1.56,3.72-3.3,5.83-3.63ZM69.79,91.01c-4.3-2.14-8.64-2.15-12.2,1.36-.46.46-2.02,2.37-1.9,2.92,4.31,3.13,9.79,2.66,13.25-1.44.16-.19,1.38-1.88,1.26-1.99-.75.2-2.18.32-2.8.67-.39.22-1.07,1.33-1.61,1.75-.15.12-1.38.96-1.05.21.24-.56,1.41-.98,1.68-1.58l-4.94,1.05v-.43s8.3-2.52,8.3-2.52Z"/>
      <path class="cls-1" d="M87.67,111.93c-.56,4.45-4.35,7.86-8.75,8.28-3,.28-3.38.37-2.96-2.54.54-3.75,2.58-6.88,6.11-8.4,1.56-.67,4.07-1.52,5.61-.7-.1,1.07.13,2.32,0,3.36ZM86.19,108.88c-5.87.39-9.88,4.8-9.67,10.72,6.29.53,11.01-3.96,10.51-10.3-.82.77-2.24,1.86-2.7,2.87-.41.92-.24,2.05-.98,2.8v-1.68c-.58.37-1.61,1.89-2.1,2.1-.26.11-.4-.05-.31-.31l5.25-6.2Z"/>
      <path class="cls-1" d="M139.24,61.68c-.06.03-.06.22-.18.27-.42.15-2.19.49-2.44.14-1.43-3.49-1.63-7.52.69-10.66.83-1.13,4.76-4.57,6.13-4.11.79.27,1.51,3.49,1.59,4.31.45,4.68-1.5,8.19-5.79,10.05ZM143.37,47.93c-2.8.78-5.02,2.71-6.3,5.3-.06.12-.33.11-.4.32-.13.36-.4,2.02-.43,2.47-.14,1.83.15,3.41.63,5.15.64-.51,1.02-1.88,1.2-2.69s.2-2.64.37-2.99c.05-.1.27-.27.32-.21l.21,1.05c.07-.26,1.19-3.04,1.68-2.52l-1.68,4.1c.58.24,1.49-1.42,1.68-.43-1.61,1.1-2.78,2.24-2.94,4.31,6.16-2.16,8.28-7.96,5.67-13.86Z"/>
      <path class="cls-1" d="M61.71,100.8c3.17-3.45,7.9-3.69,11.72-1.13.78.52,2.84,1.94,1.93,2.91-3.42,3.68-8.88,4.24-12.82,1.04-1.36-1.1-2.05-1.49-.83-2.82ZM70.85,102.15h-3.89s-.42-.31-.21-.42l2.63-.21-.53-.42c.25-1.1,1.36.1,1.9.2,1.01.19,2.59.08,3.67.22-2.29-2.71-6.4-3.83-9.68-2.21-.59.29-2.94,1.95-2.94,2.53s2.55,2.26,3.16,2.52c3.45,1.49,7.17.63,9.67-2.1-.78-.09-1.85-.25-2.62-.1-.66.13-1.05,1.17-1.89,1.05l.73-1.05Z"/>
      <path class="cls-1" d="M99,104.03c-3.71-.45-7.39-3.47-7.92-7.29-.15-1.08-.04-5.09,1-5.63.47-.24,3.21,1.14,3.77,1.5,3.92,2.55,4.56,7.21,3.15,11.43ZM98.59,102.99c1.57-5.37-1.13-10.07-6.51-11.35-.07,1.45-.51,2.85-.43,4.32.19,3.63,2.96,5.97,6.1,7.24.15-1.05-2.67-3.25-2.71-3.5s.34-.45.35-.77c.02-.62-1.11-2.57-1-2.67.57-.53,1.45,1.73,1.47,2.1l.52-1.26c.67.72.08,1.87.42,2.74l1.79,3.15Z"/>
      <path class="cls-1" d="M137.25,101.97c.13,6.05-5.42,10.56-11.29,9.19-.35-6.17,5.18-11.12,11.29-9.19ZM136.65,102.36h-3.47c-.48,0-2.61.97-3.12,1.3-1.99,1.27-3.32,3.92-3.4,6.27,1.77-.84,2.83-2.06,3.26-3.99l.42.31c.05.23-1.04,1.42-.32,1.36.68-.42,1.19-1.06,1.81-1.55.2-.16.78-.72,1.03-.44l-2.73,2.73,1.26.11c-.42.79-1.58.5-2.32.72s-1.32,1.18-2.09,1.38c0,.36.92.23,1.16.22,5.09-.29,7.94-3.49,8.5-8.42Z"/>
      <path class="cls-1" d="M102.97,101.59c5.44-.58,10.1,4.25,9.62,9.62-5.8,1.78-11.69-3.32-11.17-9.28.13-.19,1.22-.31,1.55-.34ZM105.64,102.36c-1.09-.17-2.54.12-3.68,0,.15,3.35,1.94,6.5,5.07,7.86,1.38.6,2.93,1,4.39.45-1.03-.72-2.04-2.04-3.36-2,.77-.76-2.33-2.49-1.89-2.94.92.12,1.71,1.61,2.42,1.89.8.31-.51-1.45,0-1.68.9.56.75,1.75,1.15,2.43.32.54,1.42.96,1.8,1.56.49.21.32-.69.29-.92-.39-2.91-3.22-6.18-6.18-6.65Z"/>
      <path class="cls-1" d="M139.41,103.81c-1.53-4.4-.4-9.02,3.69-11.49.54-.33,2.99-1.49,3.43-1.21.94.59,1.11,4.52.96,5.59-.54,3.71-4.34,7.1-8.08,7.11ZM146.3,91.87c-5.2.68-8.08,6.25-6.49,11.12l2.11-3.67.2-2.21.52.84c.46-.21.75-1.92,1.58-1.89.32.36-1.33,2.75-1.46,3.27-.15.6.84.04.62.62-.07.18-1.28.85-1.64,1.29-.43.53-.67,1.22-1.09,1.75,5.07-1.13,7.55-6.33,5.66-11.12Z"/>
      <path class="cls-2" d="M136.86,117.92c.89.2,1.52,1.23,1.42,2.14-.13,1.19-2.39,7.02-3.01,8.36-.15.33-.27.69-.52.96-.49.31-2.28-.55-2.27-1.23l4.38-10.23Z"/>
      <path class="cls-1" d="M168.97,98c3.33-.46,7.07.97,8.64,4.01-3.51,3.98-8.26,5.04-12.78,1.91-1.78-1.23-2.63-1.71-.86-3.35,1.15-1.07,3.44-2.36,5-2.57ZM164.19,101.31h3.68c.2,0,1.37-.99,2-.63l-.42.84c.24.21,2.27-.41,2.52.42-2.75.62-5.51-.32-8.2.32,3.11,2.81,6.67,3.86,10.51,1.69.6-.34,2.14-1.44,2.43-2s-1.63-1.87-2.07-2.14c-3.65-2.22-7.48-1.32-10.45,1.51Z"/>
      <path class="cls-2" d="M148,124.64c.07.52-.24.9-.46,1.32-.79,1.5-3.9,6.27-5.01,7.39s-1.86-.03-2.52-1.04l5.77-7.7,2.22.02Z"/>
      <path class="cls-1" d="M69.77,88.04c-5.68,1.6-11.29-3.54-10.81-9.23,5.6-1.83,11.71,3.42,10.81,9.23ZM62.96,79.24c-1.05-.15-2.38.11-3.47,0,.15,4.77,4.24,9.2,9.25,8.3-.99-.92-2.06-2.37-3.57-2.21-.28-.54.48-.36.42-.52l-2.31-2.21c.8-.08,1.29.55,1.79,1.05.56.22.09-.89.62-.63.27.13.61,1.42,1.04,1.9.64.7,1.87,1.34,2.53,2.09.13-2-1.5-4.94-3.07-6.18-.64-.51-2.47-1.49-3.24-1.59Z"/>
      <path class="cls-1" d="M179.22,78.61c.84.26-.03,3.07-.26,3.74-1.15,3.31-3.75,5.61-7.31,5.93-3.35.3-3.87-.23-2.84-3.47.75-2.38,3.98-6.19,6.63-6.19h3.78ZM178.9,79.24h-3.26c-.46,0-2.34.86-2.82,1.17-1.93,1.25-3.82,4.28-3.69,6.61.71-.83,2.12-1.46,2.74-2.3.34-.46.68-1.73,1.05-1.9.55-.25.06.85.63.63.3-.12.78-.98,1.37-.84.39.38-1.68,1.67-1.79,1.9-.13.26-.06.77-.12.82-.06.06-.69-.03-1.04.12-.66.29-1.74,1.73-2.53,2.1,5.2.91,9.34-3.27,9.46-8.3Z"/>
      <path class="cls-2" d="M101.11,118.34l3.96,9.61.02.65-2.15.63-.33-.31-3.09-8.7c-.15-.55,1.07-2.23,1.58-1.89Z"/>
      <path class="cls-2" d="M89.77,124.85c.99-.13,1.56-.55,2.43.2,1.8,1.53,3.23,5,5.11,6.66.82.85-.99,2.13-1.71,1.94s-4.75-6.86-5.58-7.89l-.24-.91Z"/>
      <path class="cls-1" d="M64.7,70.05c2.7-.35,5.52,1.25,6.96,3.46.3,1.25-3.67,2.68-4.73,2.76-2.64.19-5.6-1.63-6.58-4.04,1.06-.99,2.87-2,4.34-2.19ZM70.64,72.94c-.89-.36-1.4-1.16-2.3-1.59-2.46-1.17-5-.44-7.15.96-.19.27,1.58,1.96,1.9,2.19,2.13,1.5,5.7,1.32,7.55-.51-1.44-.31-2.4-.14-3.78.21l.21-.63c-.25-.21-2.2.47-2.1-.63,1.96-.37,3.64.29,5.57.42l.1-.42Z"/>
      <path class="cls-1" d="M62.78,59.93c.74-.26,2.32.34,3.03.7,3.02,1.52,4.49,4.39,3.97,7.77-.34,2.23-4.1.16-5.13-.73-1.92-1.66-2.92-4.78-2.2-7.24.07-.24.03-.4.33-.51ZM63.07,60.53v3.26c0,1.95,3.38,5.03,5.46,4.84-.98-1.53-2.47-2.93-2.94-4.73l1.05,1.26.42-.84c.26-.3.75,1.93.86,2.18.24.56.71,1.16,1.13,1.6.79-4-2.16-7.1-5.99-7.57Z"/>
      <path class="cls-1" d="M126.82,50.6c-.25-.26-.61-1.94-.66-2.39-.37-3.68,1.6-6.67,5.1-7.83,2,2.27,1.7,6.25-.38,8.39-.58.59-3.4,2.51-4.06,1.83ZM127.82,49.81c3.65-.87,5.24-5.5,3.24-8.61-3.4,1.24-4.86,4.51-4.08,7.98.59.72,1.18-2.84,1.05-3.15l.63.21.84-1.26-.62,2.21.62.2c-.94.7-1.36,1.27-1.68,2.42Z"/>
      <path class="cls-1" d="M172.13,70.05c1.47-.13,3.14.39,4.39,1.16.22.13,1.16.77,1.22.88.69,1.1-2.5,3.4-3.41,3.74-1.68.62-3.69.47-5.32-.27-.62-.28-2.48-1.43-2.21-2.19.54-1.56,3.73-3.17,5.32-3.32ZM167.97,73.99c2.68,2.66,7.35,1.84,9.21-1.37-2.81-2.83-7.27-2.44-9.63.74,1.48.09,2.79-.22,4.09-.85l.24.45c.63-.14,1.52-.57,1.55.41l-2.1.21.21.63c-1.32-.54-2.21-.27-3.57-.21Z"/>
      <path class="cls-1" d="M175.52,59.93c1.32,4.45-1.78,9.77-6.71,9.34-1.75-4.64,1.96-9.24,6.71-9.34ZM175.12,60.54c-3.96.47-6.56,3.52-6.09,7.57,1.06-.88,1.73-2.22,1.89-3.58.7.43.89-.22,1.47-.1-.32.46-.65.93-.89,1.44-.13.28.01.63-.07.78-.06.12-2.09,1.85-1.77,2.09,4.12-.43,5.89-4.38,5.46-8.19Z"/>
      <path class="cls-1" d="M153.67,49.62c.27,1.53.17,3.41-.51,4.83-1,2.08-4.53,3.98-6.81,3.11-.56-4.44,2.82-8.26,7.32-7.94ZM153.26,50.23c-3.54-.06-6.33,2.78-6.31,6.31,1.19-.69,1.12-1.9,1.79-2.94l.42.63c.03-.33,1.65-1.91,1.37-.95-.27.91-2.51,2.82-2.94,3.89,3.92-.17,5.9-3.16,5.68-6.93Z"/>
      <path class="cls-1" d="M126.38,57.35c-.23-4.17,3.4-7.97,7.66-6.92.63,4.15-3.58,8.06-7.66,6.92ZM133.5,50.87c-3.28-.26-6.21,2.11-6.31,5.46,1.22-.7,1.54-1.83,2.21-2.94l.11.84,1.37-1.05c.14-.04.15.18.1.31-.39.99-2.66,2.59-3.36,3.47,3.48-.07,5.79-2.68,5.89-6.09Z"/>
      <path class="cls-1" d="M84.51,49.71c.18-.58,1.82-.1,2.27.04,2.99.91,5.14,3.75,5.11,6.9-.03,2.27-3.86.7-4.96-.11-.72-.53-2.42-2.63-2.42-3.47,0-.73-.15-2.87,0-3.36ZM91.24,56.75c0-3.47-2.51-6.55-6.1-6.52-.64,3.56,1.79,6.96,5.47,6.94-.36-1.08-2.14-2.37-2.52-3.26s1.12.46,1.26.32c0-.22-.11-.83.31-.63.46.21.26,1.17.43,1.67.11.33.82,1.23,1.15,1.48Z"/>
      <path class="cls-1" d="M109.66,51.99c.91.88,2.36,3.84,1.94,5.05-.24.69-2.35.4-2.93.25-1.99-.53-3.86-2.47-4.39-4.43-.16-.59-.55-2.36.12-2.58,1.45-.48,4.2.69,5.26,1.73ZM111,56.33c-.27-3.31-2.98-5.65-6.31-5.46-.13,2.99,2.14,5.93,5.26,5.88l-2.94-3.05c.67-.35,1.18.46,1.68.74l.11-.84c.85.9.62,2.48,2.21,2.73Z"/>
      <path class="cls-1" d="M137.65,43.56c.7-.1,3.36-.21,3.74.36.55.8-1.49,3.54-2.23,4.09-1.34.99-6.19,2.25-5.83-.35.27-1.93,2.43-3.83,4.32-4.1ZM140.64,44.36c-2.65-.8-6,.44-6.51,3.35.14.14,1.3-.58,1.46-.74.23-.25.25-.72.43-.85.19-.14.52.1.71.05.34-.08,1.27-.72,1.4-.14l-1.11.99-2.46,1.32c2.96.63,5.54-.99,6.09-3.98Z"/>
      <path class="cls-1" d="M97.91,43.56c2.26-.4,4.39.27,5.82,2.07,3.53,4.45-2.1,4.31-4.69,2.38-1.19-.88-3.72-3.99-1.12-4.45ZM103.85,47.5c-.5-2.8-3.77-3.96-6.29-3.13.03,2.47,3.03,4.45,5.35,4.2.32-.04.52-.02.72-.33-1.04-.95-2.63-1.11-3.36-2.41.41.18,1.83.34,2.05.47.17.1.82,1.36,1.52,1.21Z"/>
      <path class="cls-1" d="M157.2,52.81c.54-.08,2.87-.2,3.12.14.15,3.29-2.88,5.8-6.11,5.48-1.04-.11-1.47-.21-1.32-1.31.26-1.88,2.48-4.02,4.32-4.31ZM159.56,53.39c-2.58-.36-5.38.85-5.89,3.57.15.17,1.8-1.31,2.19-1.48.21-.09,1.2-.45.96.12-.69.68-1.51,1.16-2.31,1.69-.25.16-.54-.05-.42.52,2.66.31,5.56-1.51,5.47-4.41Z"/>
      <path class="cls-1" d="M77.8,52.99c3.42-1.13,7.8,1.17,7.46,5.04-3.41,1.41-7.39-1.42-7.46-5.04ZM84.51,56.75c-.42-1.89-2.24-3.17-4.1-3.36-.41-.04-1.87-.14-1.99.33.69,2.68,3.09,4.39,5.87,4.08.12-.54-.14-.37-.39-.54s-2.96-1.8-2.55-2.19c.55-.01,1.17.31,1.62.59.29.18,1.34,1.3,1.54,1.09Z"/>
      <path class="cls-2" d="M53.61,102.36c.14-.15,1.78,1.29,1.99,1.48,2.1,1.88,5.22,4.6,6.94,6.72.59.72.06,1.08-.64.64-2.54-2.73-5.48-5.24-7.87-8.1-.2-.24-.51-.34-.42-.73Z"/>
      <path class="cls-2" d="M182.27,104.26c.15.16-.77,1.27-.94,1.47-1.7,1.99-3.65,3.79-5.46,5.68l-.96.1c-.6-.4.83-1.37.95-1.79l6.41-5.46Z"/>
      <path class="cls-2" d="M111.84,163.32c.01-.1.11-.19.21-.21-.02.1-.11.18-.21.21Z"/>
      <path class="cls-8" d="M107.98,114.84c.6.51,1.22,1.36,1.75,1.94.41.45.86.03.52,1.15.4.29.91.24,1.27.63,4.76,5.08,6.05,16.12,5.59,22.81-.05.7-.06,1.61-.85,1.36-.14-.83.23-1.62.23-2.42-.05-7.86-1.31-15.37-6.21-21.55-.3-.37-.26-.85-.63-1.26-.34-.38-1.26-.85-1.79-.84l.21-.84c-1.26.11-1.14-1.2-2.1-1.79-.09-.52.37-.33.64-.22.35.15,1.06.75,1.39,1.03Z"/>
      <path class="cls-8" d="M126.07,176.83c.3.58.42,1.42.76,2.08.38.73,1.49,2.02,1.61,2.59.23,1.07-1.08.27-1.35-.13-3.05-4.44-4.72-13.46-4.95-18.8-.02-.36-.14-1.69.32-1.78.34-.07.46.26.52.53.26,1.32.14,2.83.32,4.1.47,3.47,1.36,8.62,2.78,11.4Z"/>
      <path class="cls-8" d="M124.84,125.46c-.04.06-.39.05-.56.38-.92,1.82-1.32,6.26-1.51,8.37-.13,1.49-.2,3.02-.21,4.52h-.63c.07-1.56-.1-3.17,0-4.73.24-3.56,1.26-8.42,2.91-11.6.44-.85,2.35-4.12,2.89-4.68.4-.42,1.03-.69,1.12.06-.76,1.18-1.85,2.11-2.54,3.35-.23.41-1.57,3.22-1.61,3.46-.06.35.18.83.15.87Z"/>
      <path class="cls-8" d="M115.83,166.68c-.43,5.1-1.29,10.98-4.53,15.12-.36.46-.91,1.16-1.56,1.06-.34-.35,1.8-3.26,2.11-3.88.15-.3.99-2.04,1.01-2.16.15-.79-.13-.25.25-1.04,1.28-2.7,1.15-6.08,2.1-8.58.12-.33.18-.61.63-.53Z"/>
      <path class="cls-8" d="M116.89,146.71c-.09,2.62.12,5.27,0,7.89-.06,1.57-.18,3.95-.43,5.46-.17,1.01-.86.56-.86-.63,0-.97.21-2.16.24-3.14.08-3.2.19-6.37.2-9.57h.84Z"/>
      <path class="cls-8" d="M119.2,133.68l.65.12c.09.27.17.54.19.82.22,2.49.29,8.1.01,10.52-.07.62-.17.81-.85.72v-12.19Z"/>
      <path class="cls-8" d="M118.78,154.8c.32-.41.51-.43.84,0v11.35c-.32.41-.51.43-.84,0v-11.35Z"/>
      <path class="cls-8" d="M122.63,181.76c.02.05.29.08.34.22.1.3.94,2.42-.2,1.63s-2.23-7.95-2.1-9.57c.45-.08.5.2.63.53.71,1.84.72,5.18,1.33,7.19Z"/>
      <path class="cls-8" d="M119.2,117.6c.03-.23.34-.59.21-.95h.63c.39.37-.06,5.74-.27,6.57-.1.39-.05.7-.56.58.16-1.97-.22-4.27,0-6.2Z"/>
      <path class="cls-8" d="M123.82,119.39c.19.18-1.4,4.24-1.67,4.74-.16.29-.18.61-.64.51-.35-.42,1.05-4.61,1.45-5.12.21-.26.57-.1.86-.13Z"/>
      <path class="cls-8" d="M122.56,150.29c.03,1.37-.03,2.74,0,4.11,0,.65.67,1.72-.41,1.78-.23-.22-.32-4.76-.21-5.36.07-.36.22-.59.63-.53Z"/>
      <path class="cls-8" d="M116.02,119.84c.21.15,1.31,3.48,1.08,3.75-.46.09-.48-.23-.64-.52-.26-.46-1.53-3-1.25-3.27.24.03.65-.08.81.03Z"/>
      <path class="cls-6" d="M134.62,96.13c-4.97,5.11-11.13,8.99-15.31,14.85-3.24-4.88-8.22-8.04-12.51-11.87-5.64-5.03-13.13-14.67-5.99-21.76,5.79-5.75,15.99-1.28,17.97,5.98.64.91,1.86-2.44,2.15-2.89,6.87-10.66,22.71-5.51,18.99,7.64-.98,3.46-2.89,5.6-5.29,8.06Z"/>
      <path class="cls-6" d="M119.41,62.85v-3.26c0-1.12,2.06-2.68,2.1-3.99-.23-.35-.46.04-.6.24-.41.59-.6,1.55-1.29,1.96l-.1-5.68-.32-.21-.21,3.78c-.36.08-.94-2.71-1.47-2.1-.21,1.2,1.09,2.52,1.25,3.48.3,1.83-.3,3.93-.2,5.77-3.47-3.38-5.67-8.67-4.35-13.5.76-2.8,2.8-5.4,4.71-7.5.66-.17,2.48,2.36,2.88,2.94,4.43,6.46,2.89,12.75-2.4,18.06Z"/>
      <path class="cls-6" d="M135.6,72.09c-.12-.16,3.26-1.97,3.46-2,.61-.08,3.57.66,3.9.32v-.63c-.2-.21-2.43.48-2.31-.63l5.25-2.63c.08-.54-.35-.29-.64-.22-.62.15-4.01,1.97-4.19,1.8.11-.76,1.21-1.34,1.47-2,.1-.27-.04-.39-.31-.31-.58.13-2.02,2.25-2.27,2.88l-4.57,2.37c2.13-8.42,10.58-12.09,18.27-8.06-2.17,8.32-10.04,11.84-18.06,9.11Z"/>
      <path class="cls-6" d="M87.52,100.19c-.49-.59-1.43-2.95-2.28-3.29-.54-.12-.32.6-.2.84.24.51,1.71.99,1.47,1.89-.98-.86-2.14-1.37-3.24-2.03-.16-.1-.22-.4-.39-.5-.26-.16-1.55-.79-1.73-.63-.08.44.28.58.56.8,1.14.92,3,1.83,4.27,2.56l-.11.42c-.42-.08-2.94-.53-3.04-.42-.04.04.02.46,0,.63.95.11,1.92.26,2.87.34.37.03.73-.23,1.18-.1.29.08,2.62,1.43,2.95,1.69.23.18.44.21.35.59-6.18,1.27-11.76-.65-14.88-6.24-.38-.67-2.01-3.99-1.64-4.49,3.71-1.06,7.1-1.31,10.57.61s5.88,5.35,6.69,9.28c-.76-.57-2.87-1.32-3.4-1.96Z"/>
      <path class="cls-6" d="M148.42,102.99c.56-.5,2.52-2.05,3.15-2.23.82-.22,3.21.5,4.2-.4.11-.49-.44-.33-.74-.32-.79.04-1.63.45-2.41.11.63-.73,1.61-1.07,2.36-1.57.21-.14.26-.45.49-.61.57-.39,1.91-.52,1.98-1.5-.11-.1-1.7.7-1.95.85-.14.08-.17.33-.31.41-.41.25-1.82,1.17-2.06,1.26-.26.1-.41-.05-.31-.31.07-.19,2.36-2.52.98-1.97-.96.39-1.8,2.6-2.56,3.33s-2.51,1.56-3.46,2c1.58-7.94,9.22-12.89,17.15-9.79.4.53-1.62,4.63-2.05,5.33-3.06,4.97-8.93,6.6-14.47,5.39Z"/>
      <path class="cls-6" d="M102.8,71.04c-.32.08-.5-.1-.75-.2-.82-.33-3.3-1.5-3.86-2.02-.44-.41-2.06-3.66-2.74-3.03l1.26,2.31-4.52-1.68-.11.42,10.51,5.26c-5.6,1.76-11.5,1.04-15.22-3.8-.61-.79-3.09-4.87-2.62-5.63,7.7-3.44,15.88.24,18.05,8.38Z"/>
      <path class="cls-6" d="M97.02,68.1c.14.07.14.14,0,.21v-.21Z"/>
      <path class="cls-6" d="M78.63,67.05c-.02.61-.16,1.28-.37,1.85-.12.34.11.56-.47.46,0-1.26-.15-2.77-.58-3.95-.12-.34.11-.56-.47-.46l.84,5.88-1.26-.63c-.14.87,1.14,1.3,1.33,1.73.16.35.68,3.39.56,3.52-.5-.1-1.08-.61-1.47-.94-5.84-4.94-6.68-11.27-2.18-17.54,6.22,3.32,8.5,9.3,5.86,15.96-.17.44-.8,1.81-1.05,2.1-.27.31-.34.17-.47-.15-.24-.58-.77-4.2-.64-4.74.16-.67,1.83-2.89.38-3.09Z"/>
      <path class="cls-6" d="M117.52,73.57c-.2.24-1-.67-1.16-.84-2.24-2.33-4-5.13-6.1-7.57-.53-.08-.33.35-.2.62.24.51,3.01,3.83,2.83,4-.9-.01-1.71-.94-2.46-1.22-.3-.11-.57-.15-.48.27.89,1.2,2.73,1.26,3.77,1.9.99.61,2.05,2.61,2.95,3.46-3.89-.44-7.96-2.44-9.99-5.88-1.77-2.98-1.9-6.32-1.57-9.67,8.13.55,13.06,6.93,12.4,14.92Z"/>
      <path class="cls-6" d="M120.67,69.68c.08-.73.57-2.2.84-2.95,1.87-5.27,6.22-7.51,11.57-8.09,1.39,8.06-3.5,14.59-11.56,15.55-.09-.36.15-.42.31-.63.38-.49,1.79-2.12,2.22-2.41,1.04-.69,2.85-1.01,3.96-1.82.06-.34.18-.69-.29-.61-.75.14-1.88,1.57-2.84,1.37l3.57-4.63-.51-.3-7.26,8.4c.1-1.24-.14-2.67,0-3.89Z"/>
      <path class="cls-6" d="M159.77,75.46c.34-.98.27-2.51.68-3.42.32-.7,1.4-.68,1.21-1.63l-.84.42c-.43-.89.08-1.21.19-1.81.25-1.43.63-2.85.65-4.29-.58-.1-.35.12-.47.46-.47,1.34-.53,2.86-1.1,4.16-.64-.58.14-2.47-.94-2.52-.36,1.19.83,2.78.84,3.67.03,1.41-.89,3.44-.85,4.95-3.23-4.57-3.31-10.92.43-15.23.55-.64,3.35-3.25,4.06-3.04,1.52,2,2.84,5.12,2.88,7.65.08,4.31-2.9,8.83-6.74,10.62Z"/>
      <path class="cls-6" d="M143.38,82.5c.11-.97.86-2.82,1.32-3.72,1.77-3.46,5.38-5.6,9.17-6.04.67,2.87.87,6.62-.36,9.38-1.43,3.18-5.41,5.83-8.87,6.16l4.96-8.6c.21-.23.12-.58-.22-.44-.66.28-2.06,3.36-2.74,3.99-.04-.94.23-1.89.11-2.84-.04-.29-.15-.65-.42-.31-.38,1.27,0,2.8-.31,4-.12.47-1.85,3.33-2.21,3.67-.18.3-.42-.39-.42-.42,0-1.48-.17-3.44,0-4.83Z"/>
      <path class="cls-6" d="M79.78,88.91c-1.51-.2-3.94-1.47-5.13-2.43-2.84-2.29-3.93-5.38-4.43-8.91,1.2.1,2.28-.25,3.48-.22,5.99.12,10.22,4.45,10.81,10.31l-5.17-3.98c-.44-.77-.42-1.58-1.24-2.12l.21,1.26c-.49-.24-1.05-.83-1.52-1-.26-.09-.79-.23-.68.26l4.83,3.79c-.83.06-1.53-.43-2.42-.32-.29.03-.65.16-.32.42.5-.22.66.39.78.42.83.18,2.08-.05,2.99.33.46.19,2.24,1.61,2.32,2.2-1.42-.14-3.14.19-4.52,0Z"/>
      <path class="cls-6" d="M95.02,87.86c-.61-.63-2-2.55-2.21-3.36-.31-1.2.15-2.86-.63-4-.69.06-.12,1.53-.09,1.99.01.23.13.8-.22.74-.52-.94-1.53-2.81-2.31-3.47-.26-.22-.52-.16-.42.21l4.83,8.31c-.38.34-4.14-1.28-4.76-1.64-4.83-2.85-5.86-8.82-4.48-13.91,4.11.74,7.81,3.09,9.49,7.01,1.17,2.73,1.16,5.22.8,8.13Z"/>
      <path class="cls-6" d="M168.18,77.56c-.4,7.51-6.58,12.7-14.09,11.14.5-.49,2.36-2.12,2.88-2.27s1.09.02,1.62-.07c.49-.08,2.04-.31,1.7-1.03l-2.83.53c.7-.9,4.31-2.82,4.62-3.58.4-.99-1.78.66-1.89.53l-.1-.63-.83,1.48-5.16,3.99c.53-7.45,7-11.37,14.08-10.09Z"/>
      <path class="cls-6" d="M77.15,105.73c-.69.72-1.84,1.77-2.66,2.28-.61.37-2.27.8-2.49,1.08-.44.54.51.31.32.74l-1.89,1.69c-.09.51.38.35.63.21.78-.45,1.99-1.73,2.63-2.42.92-.18-.98,2.08,0,1.68.7-.29.86-1.57.92-2.21l3.18-2.2c-.27,6.46-5.69,10.48-11.98,9.25.17-4.96,3.28-9.13,8.33-9.85.97-.14,2.04.03,3.02-.23Z"/>
      <path class="cls-6" d="M166.14,115.33c-.07-.03-.1-.29-.21-.35-3.39-1.74-5.23-5.03-5.31-8.84.69.68,2.26,1.42,2.74,2.2.31.51.61,2.16,1.15,2.42.81.4-.67-1.83.2-1.47.24.1,1.71,1.57,2.1,1.89.24.19.34.51.74.42.09-.84-.82-1.22-1.26-1.79-.09-.21.88.09.63-.42-.13-.26-2.1-.88-2.72-1.28-.91-.58-1.93-1.66-2.75-2.4,6.1-.56,11.03,3.8,11.27,9.89-.35.44-2.57.46-3.18.42s-2.91-.48-3.4-.7Z"/>
      <path class="cls-6" d="M86.93,122.12c-.8-.25.17-2.97.42-3.57,1.85-4.37,7.04-6.11,11.45-5.15-.76.48-1.88,1.48-2.73,1.69-.23.06-4.2.2-3.37.94l2.1-.1c-.89.96-2.14,1.5-3.09,2.37-.23.21-.59.22-.48.67l7.68-4.83c.46-.18.32.42.26.68-.61,2.99-4.41,7.3-7.62,7.3-.94,0-4.02.19-4.63,0Z"/>
      <path class="cls-6" d="M168.18,91.85c.63.27,2.03.24,2.52.53.37.22,1.43,1.96,2.01,2.2.4.17.34-.14.2-.42-.27-.57-.88-.67-.94-1.26l5.25,1.05c-.23-.94-2.14-.97-2.94-1.26l.84-.63c-1.03-.28-2.12.27-3.2.15-1.21-.14-2.13-.81-3.31-1,.17-.33.92-.59,1.26-.73,4.73-1.92,10.13-.73,12.58,4.02.6,1.17-.91,1.59-1.93,2-5.11,2.09-9.71-.1-12.34-4.66Z"/>
      <path class="cls-6" d="M152,121.91c-6.13,1.8-11.43-1.76-12.82-7.77l7.46,4.63.32-.32c-.93-1.13-2.68-1.34-3.36-2.53.52-.27,2.36.7,2.31-.31-2.39-.11-4.51-.65-6.31-2.31,6.04-.91,11.74,2.18,12.4,8.61Z"/>
      <path class="cls-6" d="M100.07,55.7c-1.01-.05-.32,1.21-.52,1.68l-1.58-3.15c-.86.34.02.92.26,1.53.98,2.61-.28,1.2-.46,1.41-.19,1.2,1.05,1.19,1.57,1.9.17.23.91,2.12.95,2.41s0,.4-.31.31c-1.39-.41-3.71-2.21-4.64-3.35-2.31-2.86-2.38-7-.74-10.21.84-.52,4.07,1.92,4.74,2.63,2.77,2.96,2.73,6.58,1.78,10.3-.37-.08-1.05-1.82-1.05-2v-3.47Z"/>
      <path class="cls-6" d="M98.7,57.81c.12.13.42.27.21.41-.1-.12-.42-.27-.21-.41Z"/>
      <path class="cls-6" d="M151.37,109.09c.5.77,2.3,2.09,2.61,2.74.36.74.08,2.81,1.17,2.61l.1-1.15c.73.53,1.53,1.96,2.32,2.31.25.11.42-.06.31-.31-.32-.74-2.09-2.07-2.52-2.95l.84-.21c-.38-.64-1.05-.41-1.59-.72-.8-.47-1.75-1.83-2.41-2.53,5.92.2,9.6,4.81,9.79,10.51-6.32,1.15-11.24-4.04-10.63-10.31Z"/>
      <path class="cls-6" d="M69.79,91.01l-8.31,2.52v.43s4.94-1.05,4.94-1.05c-.27.6-1.44,1.02-1.68,1.58-.32.76.91-.09,1.05-.21.54-.42,1.22-1.53,1.61-1.75.62-.35,2.05-.47,2.8-.67.12.11-1.1,1.8-1.26,1.99-3.46,4.1-8.94,4.57-13.25,1.44-.12-.55,1.43-2.46,1.9-2.92,3.56-3.51,7.9-3.49,12.2-1.36Z"/>
      <path class="cls-6" d="M86.19,108.88l-5.25,6.2c-.09.26.05.42.31.31.5-.21,1.53-1.73,2.11-2.1v1.68c.74-.75.56-1.89.98-2.8.46-1.01,1.88-2.1,2.7-2.87.5,6.34-4.22,10.83-10.51,10.3-.2-5.92,3.8-10.33,9.67-10.72Z"/>
      <path class="cls-6" d="M143.37,47.93c2.61,5.9.49,11.7-5.67,13.86.16-2.07,1.33-3.21,2.94-4.31-.18-1-1.09.66-1.68.43l1.68-4.1c-.49-.52-1.62,2.26-1.68,2.52l-.21-1.05c-.04-.06-.27.11-.32.21-.17.35-.19,2.18-.37,2.99s-.56,2.18-1.2,2.69c-.48-1.74-.77-3.32-.63-5.15.03-.45.3-2.11.43-2.47.07-.2.34-.2.4-.32,1.29-2.59,3.51-4.52,6.3-5.3Z"/>
      <path class="cls-6" d="M70.85,102.15l-.73,1.05c.85.12,1.24-.92,1.89-1.05.77-.15,1.84.01,2.62.1-2.5,2.73-6.22,3.59-9.67,2.1-.61-.26-3.16-1.96-3.16-2.52s2.35-2.24,2.94-2.53c3.28-1.61,7.39-.49,9.68,2.21-1.08-.14-2.66-.03-3.67-.22-.55-.1-1.65-1.3-1.9-.2l.53.42-2.63.21c-.21.12.19.42.21.42h3.89Z"/>
      <path class="cls-6" d="M98.59,102.99l-1.79-3.15c-.33-.87.26-2.01-.42-2.74l-.52,1.26c-.02-.37-.9-2.63-1.47-2.1-.1.1,1.02,2.05,1,2.67,0,.32-.39.53-.35.77s2.86,2.44,2.71,3.5c-3.14-1.27-5.91-3.62-6.1-7.24-.08-1.47.36-2.87.43-4.32,5.38,1.28,8.08,5.98,6.51,11.35Z"/>
      <path class="cls-6" d="M136.65,102.36c-.56,4.93-3.41,8.13-8.5,8.42-.24.01-1.17.15-1.16-.22.77-.19,1.35-1.15,2.09-1.38s1.9.07,2.32-.72l-1.26-.11,2.73-2.73c-.25-.28-.83.28-1.03.44-.62.49-1.13,1.13-1.81,1.55-.71.05.37-1.13.32-1.36l-.42-.31c-.43,1.93-1.49,3.15-3.26,3.99.08-2.35,1.41-5,3.4-6.27.51-.32,2.63-1.3,3.12-1.3h3.47Z"/>
      <path class="cls-6" d="M105.64,102.36c2.95.46,5.79,3.73,6.18,6.65.03.23.2,1.13-.29.92-.38-.61-1.48-1.02-1.8-1.56-.4-.68-.25-1.87-1.15-2.43-.51.23.8,1.98,0,1.68-.71-.27-1.5-1.77-2.42-1.89-.44.45,2.66,2.18,1.89,2.94,1.33-.04,2.33,1.28,3.36,2-1.46.55-3,.15-4.39-.45-3.14-1.35-4.92-4.51-5.07-7.86,1.14.12,2.59-.17,3.68,0Z"/>
      <path class="cls-6" d="M146.3,91.87c1.89,4.78-.58,9.99-5.66,11.12.42-.54.66-1.23,1.09-1.75.36-.45,1.57-1.11,1.64-1.29.22-.58-.77-.02-.62-.62.13-.52,1.78-2.91,1.46-3.27-.83-.03-1.12,1.68-1.58,1.89l-.52-.84-.2,2.21-2.11,3.67c-1.58-4.87,1.29-10.44,6.49-11.12Z"/>
      <path class="cls-6" d="M164.19,101.31c2.97-2.83,6.8-3.73,10.45-1.51.45.27,2.36,1.59,2.07,2.14s-1.83,1.66-2.43,2c-3.85,2.17-7.4,1.13-10.51-1.69,2.69-.63,5.45.3,8.2-.32-.26-.83-2.29-.21-2.52-.42l.42-.84c-.63-.36-1.8.63-2,.63h-3.68Z"/>
      <path class="cls-6" d="M62.96,79.24c.77.11,2.6,1.08,3.24,1.59,1.57,1.24,3.2,4.18,3.07,6.18-.66-.75-1.9-1.39-2.53-2.09-.43-.48-.78-1.77-1.04-1.9-.54-.27-.07.84-.62.63-.5-.5-.99-1.13-1.79-1.05l2.31,2.21c.06.16-.7-.02-.42.52,1.51-.16,2.58,1.29,3.57,2.21-5,.9-9.1-3.53-9.25-8.3,1.09.11,2.42-.15,3.47,0Z"/>
      <path class="cls-6" d="M178.9,79.24c-.12,5.03-4.26,9.22-9.46,8.3.78-.37,1.86-1.81,2.53-2.1.34-.15.97-.06,1.04-.12.05-.05-.01-.57.12-.82.11-.22,2.18-1.52,1.79-1.9-.59-.15-1.07.72-1.37.84-.56.22-.07-.87-.63-.63-.37.17-.71,1.44-1.05,1.9-.63.84-2.03,1.48-2.74,2.3-.13-2.32,1.76-5.36,3.69-6.61.48-.31,2.36-1.17,2.82-1.17h3.26Z"/>
      <path class="cls-6" d="M70.64,72.94l-.1.42c-1.93-.13-3.61-.79-5.57-.42-.1,1.1,1.85.42,2.1.63l-.21.63c1.39-.35,2.34-.52,3.78-.21-1.86,1.83-5.42,2.01-7.55.51-.33-.23-2.09-1.92-1.9-2.19,2.16-1.4,4.7-2.13,7.15-.96.91.43,1.41,1.23,2.3,1.59Z"/>
      <path class="cls-6" d="M63.07,60.53c3.83.46,6.79,3.57,5.99,7.57-.42-.44-.89-1.04-1.13-1.6-.11-.25-.6-2.48-.86-2.18l-.42.84-1.05-1.26c.47,1.8,1.96,3.2,2.94,4.73-2.08.2-5.46-2.89-5.46-4.84v-3.26Z"/>
      <path class="cls-6" d="M127.82,49.81c.32-1.15.74-1.72,1.68-2.42l-.62-.2.62-2.21-.84,1.26-.63-.21c.13.31-.46,3.87-1.05,3.15-.78-3.47.68-6.74,4.08-7.98,1.99,3.11.4,7.74-3.24,8.61Z"/>
      <path class="cls-6" d="M167.97,73.99c1.36-.06,2.26-.34,3.57.21l-.21-.63,2.1-.21c-.03-.98-.93-.55-1.55-.41l-.24-.45c-1.3.63-2.61.94-4.09.85,2.36-3.18,6.82-3.57,9.63-.74-1.86,3.22-6.54,4.03-9.21,1.37Z"/>
      <path class="cls-6" d="M111,49.39c-.54.08-.33-.05-.44-.29-.34-.76-.68-1.81-.61-2.65l-.63.21c.09-.84-.34-1.38-.95-1.89,0,.64.34,1.24.49,1.84.08.31-.14.67-.06.9.13.35,1.43,1.37,1.36,2.3-3.66-1.05-5.03-5.3-3.16-8.53,3.64.95,4.91,4.67,4,8.11Z"/>
      <path class="cls-6" d="M175.12,60.54c.42,3.81-1.35,7.76-5.46,8.19-.31-.24,1.71-1.97,1.77-2.09.08-.15-.07-.5.07-.78.24-.51.58-.97.89-1.44-.58-.11-.77.53-1.47.1-.17,1.35-.83,2.7-1.89,3.58-.47-4.04,2.13-7.1,6.09-7.57Z"/>
      <path class="cls-6" d="M153.26,50.23c.22,3.77-1.76,6.76-5.68,6.93.43-1.07,2.67-2.98,2.94-3.89.28-.96-1.34.61-1.37.95l-.42-.63c-.67,1.04-.6,2.25-1.79,2.94-.03-3.53,2.77-6.37,6.31-6.31Z"/>
      <path class="cls-6" d="M133.5,50.87c-.09,3.42-2.4,6.02-5.89,6.09.71-.88,2.97-2.48,3.36-3.47.05-.13.04-.35-.1-.31l-1.37,1.05-.11-.84c-.67,1.11-.99,2.24-2.21,2.94.09-3.36,3.03-5.72,6.31-5.46Z"/>
      <path class="cls-6" d="M91.24,56.75c-.33-.25-1.03-1.15-1.15-1.48-.17-.5.03-1.46-.43-1.67-.43-.2-.32.41-.31.63-.14.14-1.64-1.2-1.26-.32s2.16,2.18,2.52,3.26c-3.68.02-6.11-3.38-5.47-6.94,3.58-.03,6.1,3.05,6.1,6.52Z"/>
      <path class="cls-6" d="M111,56.33c-1.59-.25-1.36-1.83-2.21-2.73l-.11.84c-.5-.28-1.01-1.09-1.68-.74l2.94,3.05c-3.12.04-5.39-2.9-5.26-5.88,3.33-.19,6.03,2.15,6.31,5.46Z"/>
      <path class="cls-6" d="M140.64,44.36c-.55,2.99-3.13,4.61-6.09,3.98l2.46-1.32,1.11-.99c-.12-.58-1.05.06-1.4.14-.19.04-.52-.19-.71-.05-.18.13-.2.6-.43.85-.16.17-1.32.89-1.46.74.52-2.91,3.86-4.16,6.51-3.35Z"/>
      <path class="cls-6" d="M103.85,47.5c-.7.15-1.34-1.11-1.52-1.21-.22-.13-1.64-.29-2.05-.47.73,1.31,2.32,1.46,3.36,2.41-.2.3-.41.29-.72.33-2.32.26-5.32-1.72-5.35-4.2,2.51-.83,5.79.33,6.29,3.13Z"/>
      <path class="cls-6" d="M159.56,53.39c.09,2.9-2.8,4.73-5.47,4.41-.12-.57.17-.36.42-.52.8-.52,1.63-1.01,2.31-1.69.24-.56-.75-.21-.96-.12-.39.17-2.04,1.65-2.19,1.48.51-2.72,3.31-3.93,5.89-3.57Z"/>
      <path class="cls-6" d="M84.51,56.75c-.2.21-1.24-.91-1.54-1.09-.45-.28-1.07-.6-1.62-.59-.42.38,2.3,2.01,2.55,2.19s.51,0,.39.54c-2.79.31-5.19-1.4-5.87-4.08.11-.47,1.58-.37,1.99-.33,1.85.19,3.68,1.48,4.1,3.36Z"/>
      <path class="cls-1" d="M106.92,40.37c3.85,1.34,6.39,5.63,4.51,9.55-.9,1.87-3.68-.56-4.51-1.6-1.97-2.47-1.9-5.48,0-7.95ZM111,49.39c.9-3.44-.36-7.16-4-8.11-1.87,3.23-.49,7.47,3.16,8.53.07-.93-1.23-1.95-1.36-2.3-.08-.23.13-.59.06-.9-.15-.6-.49-1.2-.49-1.84.61.5,1.04,1.05.95,1.89l.63-.21c-.07.84.27,1.88.61,2.65.11.25-.1.38.44.29Z"/>
    </g>
    <g>
      <path class="cls-3" d="M245.47,150.66c-.32,0-3.19-.21-3.51-.32-.96-.21-1.7-.21-2.66-.96-2.02-1.81-4.78-2.87-6.27-5.53-1.91-3.61-3.19-5.63-4.36-9.46-.53-1.81-.96-3.61-1.06-5.42-.11-1.91-1.81-5.42-1.81-7.33-.53-.74-.42-1.7-.42-2.55,0-2.55,0-5.1-.11-7.65,0-.96.11-1.91-.32-2.87-.21-.43,0-.96-.11-1.49-.21-1.06.32-2.02.11-3.08-.21-.96-.11-1.91-.11-2.98,0-1.17-.21-2.45.43-3.72.21-.53,0-1.17,0-1.81.11-1.06.11-2.13.43-3.19.21-.96.32-2.13.21-3.19-.11-1.7.43-3.3.53-4.89.11-1.7,1.27-4.14,1.81-5.74.53-1.59.53-3.4,1.17-5.1.21-.64.32-1.27.64-1.91.43-1.06,1.59-1.7,2.13-2.76.53-1.28.53-2.02,1.38-3.08,1.38-1.81,2.98-3.83,5-4.89,1.38-1.17,3.93-1.81,5.74-1.91.85-.11,2.55.32,3.4.32,1.06,0,2.34.11,2.98.85,1.7.42,4.78,2.34,5.74,4.25,1.91,3.93,4.36,7.65,4.78,12.01.64,1.59,1.59,4.25,1.91,5.85.42,1.59.11,3.29.64,4.68.53,2.13.21,4.25.74,6.27.42,1.38.21,2.98.21,4.46.11,1.59,0,3.08,0,4.68h-.11c0,2.66,0,5.31.11,7.97,0,1.27-.74,2.44-.53,3.72.21.74-.42,1.49-.21,2.23.21.64.11,1.38.11,2.02,0,.96.11,1.91-.32,2.87-.21.21-.21.64-.11.85.11,2.66-1.49,5.31-1.81,7.97-.32,2.44-.74,4.89-1.91,7.01-.64,1.06-.85,3.61-1.59,4.46-.85,2.55-2.55,2.87-3.51,5.31-.21.42-2.55,2.02-2.98,2.34-1.59,1.28-3.61,1.28-5.53,1.81-.32,0-.64,0-.85-.11ZM249.3,140.35c.21-.74.42-1.49.74-2.23,1.38-3.4.85-7.01,1.49-10.74.21-1.7,0-3.51.53-5.21.21-.74,0-1.59,0-2.34.11-.74.21-1.59.11-2.34-.11-.85.32-1.49.21-2.23-.21-.74.21-1.59.32-2.34.21-3.51,0-7.01.42-10.52.53-3.83.21-7.97.11-11.9,0,0,0-.11-.11-.21-.53-1.17-.42-2.34-.42-3.51,0-1.27-.64-2.44-.53-3.72.21-2.34-.53-4.46-.85-6.8-.21-1.91-.42-3.72-.74-5.63-.42-2.66-1.91-4.89-3.08-7.12-.32-.74-1.49-1.06-2.23-.74-.74.21-1.38.64-1.7,1.38-1.38,2.87-2.76,5.74-2.98,9.03,0,.43-.21.74-.32,1.17-.64,1.17-.85,2.34-.85,3.61,0,.53,0,1.06-.21,1.49-1.06,2.66-.74,5.53-1.38,8.29-.32,1.81.11,3.72-.42,5.53.21,1.81-.64,3.61.11,5.42.11.11-.11.32-.11.53-.11,2.23-.11,4.46-.11,6.8.64,1.59.32,3.19.42,4.89v3.08c0,2.34.11,5,.43,7.76.42,2.55.42,5.21.74,7.87.32,2.98,1.17,5.85,1.49,8.82,0,.42.11.74.21,1.17.64,2.23,1.7,4.14,3.51,5.63.32.21.64.11,1.06.11,2.98-.42,3.19-2.44,4.14-5Z"/>
      <path class="cls-3" d="M276.94,149.91c-.96-.32-2.02-.21-2.98-.21h-3.29c-.53,0-1.91.21-2.23-.32-.43-.96-.43-1.91,0-2.87.11-.21.42-.43.74-.43h3.51c.64-.11.85-.32.96-.96.11-1.49-.32-2.98.42-4.36-.32-.74-.53-1.49-.11-2.23-.64-.64.21-1.27-.11-1.91-.32-.64.21-1.17.21-1.7,0-1.7.21-3.51-.21-5.31-.32-.96-.21-2.13-.11-3.19,0-.53.42-.85.32-1.38-.32-1.17-.32-2.44-.11-3.61-.64-3.19-.32-6.48-.11-9.67,0-.74-.11-1.59-.21-2.34-.11-1.38.11-2.76-.43-4.04-.53-1.38.64-2.66.32-4.04-.11-.42,0-.85,0-1.27q-.64-3.93,0-7.55c0-.32.11-.53.11-.85-.11-3.83-.11-7.55-.11-11.27,0-.74-.21-.96-.85-.96-.74,0-2.13,0-2.98.11-1.06.11-1.49,0-1.81-.85-.11-.43-.21-.96-.21-1.38,0-.53.53-1.27.96-1.38.32-.11.64-.11.96-.11.96-.11,2.55-.32,3.4-.21.85.21,1.59.32,2.34,0,.74-.32,1.49-.42,2.34-.11.64.32,1.27.32,1.91,0,.42-.21.85.11,1.17.11.85-.21,1.7.32,2.45-.11.32-.21.64-.21.85-.11,1.49.53,2.98.32,4.46.53,2.66.42,8.08.85,9.78,3.19,1.91,1.91,3.61,2.44,5.31,6.06.32,1.91,2.02,6.8,1.91,8.72,0,1.38.21,2.66-.11,3.93-.53,2.66-1.27,7.65-3.19,10.2-.96,2.87-4.57,4.14-6.91,5.95-1.59,1.17-6.06,1.59-8.08,1.81-.43,0-.74,0-1.17.11-.32,0-.53.21-.53.53-.11.43-.11.96-.11,1.49,0,1.17.53,2.23.21,3.4.42,1.06-.21,2.13-.21,3.19.11,2.76,0,5.53,0,8.29,0,3.51-.32,6.91,0,10.42.11.74,0,1.38,0,2.13,0,.43.32.74.74.74.64,0,1.27.11,1.81-.11.64-.21,1.06-.11,1.7,0,.74.21,1.7-.21,2.13.53.43.74-.32,1.49,0,2.34.11.21-.42.74-.74.74-1.06.11-2.02.11-2.98.11-1.7.11-3.4-.21-5,.53-2.13-.21-4.15.32-6.16-.32ZM287.14,112.18c1.06.21,2.02-.32,2.98-.64.96-.32,1.91-.96,2.55-1.81,1.49-2.34,1.81-5,2.23-7.65.21-1.06,0-2.34.42-3.19.64-1.38-.32-2.34-.21-3.51.11-.42,0-.74,0-1.17.11-.53.32-.96.32-1.49-.11-.53-.32-1.06-.42-1.7-.32-3.29-1.17-6.16-2.45-9.14-.64-1.59-1.91-2.44-3.51-2.87-1.06-.32-2.13-.42-3.19-.53-.11,0-.32.21-.32.32-.11,1.38-.11,2.66-.11,3.93v3.51c-.11,1.17.11,2.44-.21,3.51-.32,1.17.11,2.23,0,3.4-.11,1.06.11,2.02-.21,3.08-.21.85-.21,1.81.11,2.66.43,1.17.21,2.34.21,3.51,0,.21-.21.53-.11.85.43,2.34.32,4.68.21,7.01,0,.64,0,1.17.11,1.81,0,.21,0,.64.53.43.32-.21.74-.21,1.06-.32Z"/>
      <path class="cls-3" d="M314.88,148.96c-.11-.53-.11-1.17-.11-1.81,0-.42.42-.64.74-.85.11,0,.21-.11.21-.11,1.06.85,2.34-.74,3.4.11.21.21.53.21.85.32.32,0,.74-.32.85-.64v-.96c.43-3.51.11-6.7.11-10.1,0-.96.21-2.02-.32-2.87.64-.96.32-2.02.42-2.98,0-.74.21-1.59-.21-2.34-.21-.32,0-.74.11-1.06.11-.64.32-1.27.11-1.81-.42-1.06.11-2.02-.11-3.08-.11-.74.11-1.49.21-2.23,0-.74-.32-1.49-.32-2.23.11-4.15.53-9.03.21-13.07-.32-4.78.32-8.5.43-12.75,0-.74-.32-1.49-.32-2.13,0-1.38.11-2.76.11-4.14-.11-1.27-.32-2.76-.21-4.04.11-.43-.85-.64-1.27-.64-.64,0-1.17.21-1.7.21-1.28-.11-1.59,0-1.81.85-.11.32-.11.64-.21.85-1.59,2.87-1.91,6.06-2.87,9.03-.21.32-.11.74-.32,1.17-.53,1.06-.85,2.13-1.06,3.3-.21,1.38-.53,1.7-2.02,1.7-.96,0-1.06,0-1.17-.85s-.85-1.59-.11-2.55c.11-.21.11-.74-.11-1.17-.64-1.7.11-3.72-.64-5.42.96-1.27-.11-2.44.32-3.72.32-1.28.11-2.55.11-3.93,0-.74,0-1.59.11-2.34,0-.32.11-.85.64-.53.74.32,1.38.32,2.02,0,.96-.43,2.02-.32,2.98-.32,4.36-.11,8.72-.11,13.07-.11,1.06,0,2.13,0,3.19-.32,1.06.64,1.91-.32,2.87-.11,3.08.53,6.27.11,9.78.42.43,0,.96-.21,1.38,0,1.17.43,1.38.64,1.38,1.91,0,1.7.21,3.83.21,5.63-.11,1.28-.11,2.55,0,3.83.11,1.27,0,2.55,0,3.83.11,1.81-.11,3.19-.21,5-.11.11-.21.42-.32.42-.85.32-1.06.64-1.81.21-.21-.11-.74-.11-.85-.32-.11-.32-.32-.85-.42-1.27,0-.53.11-1.06-.11-1.49-1.49-3.61-1.91-7.44-3.51-11.05-.21-.74-.53-1.49-.85-2.23-.32-.64-1.17-1.06-2.13-.85-.53.11-1.17-.11-1.7,0-.32,0-.64.21-.64.53.11,1.28-.74,2.45-.21,3.72-.43,1.17-.21,2.34,0,3.4.21,1.17-.32,2.34-.21,3.51,0,.85.21,1.7.11,2.55-.11.74.11,1.59-.11,2.34s-.21,1.38.21,1.91c.32.64.53,1.27.43,1.91-.21,1.7.21,3.4-.53,5v.32c.74,1.06-.11,2.13.11,3.08.21.85-.64,1.59-.11,2.34.32.64.32,1.28,0,1.91.53,1.06.32,2.02-.11,3.08-.21.53-.11,1.17-.11,1.81-.21,3.08.11,6.16-.53,9.14.32,1.81.21,3.51.21,5.31-.11,1.7-.11,3.29-.11,5,.11.96,0,2.02.32,2.98.21.64.11,1.38.11,2.02v4.14c0,.74.11.53,1.17.85,1.27.43,2.66-.42,3.93.32.64.43.85.43.85,1.27-.11,1.59-.64,2.23-2.13,2.34h-3.61c-2.13,0-4.04-.32-6.59,0-3.08-.32-6.27,0-9.46,0h-.85c-.64-.11-1.17-.53-1.17-1.17Z"/>
      <path class="cls-3" d="M348.57,149.49c-.21-.42-.43-.96-.53-1.38-.21-.74.11-1.27.74-1.27,1.49-.11,2.98-.11,4.46-.11.64,0,.96-.53.96-1.17-.11-1.06-.32-2.23-.32-3.29,0-2.02-.21-5.31.32-6.38-.11-.85-.43-4.36-.32-6.59.11-1.17,0-2.34,0-3.4,0-1.7,0-3.29.43-4.89-.53-1.17-.32-2.34-.32-3.51v-11.8c0-.96-.64-3.83,0-3.93.53-.11-.11-3.19-.11-4.78v-8.61c0-.64.53-1.17.21-1.91-.32-.74-.11-1.59-.11-2.34v-2.13c0-.64-.11-1.38-.11-2.02-.11-.85-.32-1.06-1.17-1.06-1.06,0-2.13.11-3.19.11-.43,0-.85-.21-.96-.64-.21-.53-.43-.96-.53-1.38-.21-.74.32-1.49,1.06-1.49.85-.11,1.81-.11,2.66-.21h5.95c2.02,0,4.14.11,6.27,0,.96,0,2.02.42,2.98,0,.53-.32,1.81,0,2.44,0,1.06.11,1.17.64,1.17,1.81.11.74-.21,1.59-.85,1.59-1.27.21-2.44.11-3.61.21-.53.11-.74.42-.74.85.21,1.91-.43,3.93.43,5.85.11.42,0,.96,0,1.49,0,3.93-.53,7.87,0,11.8.11.85-.43,1.59,0,2.34.11.32.11.85,0,1.17-.53.96.21,1.91.11,2.87-.53,4.68.11,11.8-.42,13.92,0,.96.42,2.02.42,2.98s.21,1.27-.42,2.76c.32,1.28.42,3.61.42,5.42,0,2.76.43,7.44,0,8.18.32,1.06-.11,3.4-.11,5.1,0,.64,0,1.38.11,2.02,0,.32.21.53.64.53h3.83c.96.11,1.49.96,1.27,1.91,0,.21-.11.43-.21.53-.43,1.06-.53,1.17-1.49,1.17-2.55,0-5.1,0-7.65.11-.96,0-1.81-.21-2.66.21-.11.11-.43.21-.53.11-1.59-.74-3.19-.32-4.68-.32-.96-.11-1.81-.11-2.66.32-.53.21-1.17.11-1.81.11s-1.06-.32-1.38-.85Z"/>
      <path class="cls-3" d="M375.04,149.91c-.53,0-1.06-.53-1.17-1.06-.11-.32,0-.53,0-.85,0-1.06.32-1.49,1.27-1.59h2.76c.64,0,1.17-.64.85-1.17-.53-1.17-.43-3.4-.43-4.57s.11-2.34.43-3.51c.21-1.28.11-2.76-.11-4.14-.21-.74-.32-1.49-.32-2.23,0-6.38.53-13.92,0-19.02,0-5.63-.11-11.37-.11-17.01,0-1.28,0-2.55.43-3.83.11-.21.21-.64.11-.85-.43-.96-.11-2.02-.32-3.08s-.11-2.13-.11-3.29v-3.19c0-.21-.11-.11-.11-.32,0-.43-.32-.64-.74-.64-.74-.11-1.49,0-2.23-.11-.85,0-1.38-.53-1.49-1.49v-.85c0-.74.21-1.06.96-1.17,2.55-.64,5.21-.64,7.65-.53h5.53c1.17-.11,1.81.64,2.12,1.59.53,1.7,1.06,3.29,1.28,4.78.11.53.21,1.17.42,1.7.64,1.7.64,3.08.96,4.89.11.96.32,1.81.64,2.55,1.06,2.02.85,4.25,1.38,6.38.21,1.06,1.06,2.44,1.17,3.51.11.64.43,1.17.43,1.81.21,1.59.64,3.19,1.06,4.78.32,1.38.75,2.55.96,3.93.21,1.28.96,2.55,1.06,3.93,0,.21.11.32.21.53.11-.21.21-.32.21-.53.21-.53.42-1.06.53-1.7.74-3.61,1.27-7.23,2.23-10.84.64-2.02,1.17-3.93,1.27-6.06,0-.32.11-.53.11-.85,1.38-4.46,1.38-8.93,2.98-13.39.43-1.27.53-2.76.74-4.04.11-.64-.11-1.27.43-1.7.74-.53,1.38-1.06,2.34-1.06,2.87,0,5.95-.74,9.99,0,1.49,0,2.98,0,4.46.11h1.17c.42.11.96.96.85,1.38-.21.53-.43,1.06-.43,1.7-.11.64-.32.96-.96.96-.74,0-1.49,0-2.12-.32-.43-.21-.96-.11-1.38-.11-.32,0-.53.21-.64.53v1.17c0,1.28-.21,2.66.11,3.83.21,1.28-.11,2.34-.21,3.51,0,1.28.43,2.66.11,4.04-.21,1.27,0,2.76,0,4.14v7.97c0,.85-.11,1.59.32,2.34.11.21,0,.64-.11.85-.53,2.23-.11,4.57-.21,6.8.74,1.59.53,3.29.53,5,.11,2.34,0,4.68,0,7.12,0,.96-.21,2.02.42,2.87v.32c0,1.17-.32,2.34-.11,3.4.11,1.17.32,2.13-.11,3.19,0,.21-.11.42-.11.64.74,2.34.21,4.89.43,7.33v.85c.11.32.32.53.64.53.53.11,1.06.11,1.59-.11.43-.21.96-.21,1.38-.32.53-.11.96.11,1.27.53.21.32.21.74,0,1.17,0,0-.11.11-.11.21.11.64.64,1.38,0,1.91-.53.32-1.27.32-1.91.32-.85,0-1.59.43-2.44.11-.32-.21-.85-.21-1.06,0-1.27.64-2.66.32-3.93.53-1.17.11-2.44-.21-3.61.32-1.06-.53-2.23-.32-3.4-.42-1.17,0-2.44.11-3.61.11-1.38,0-2.02-1.06-1.49-2.44,0-.11.11-.21.11-.32.32-.85.42-.85,1.17-.96h1.38q1.49,0,1.49-1.7c0-2.02.21-3.93-.43-5.85.21-2.87.32-5.63,0-8.93-.11-3.08-.11-6.16-.11-9.25-.53-1.17,0-2.34,0-3.4,0-2.23.11-4.36.11-6.59.96-6.8-.11-11.48-.11-17.22l.21-3.72c0-.11-.32-.11-.43-.21-.11.11-.21.21-.21.32-.11,1.27-.96,5.31-1.38,6.7-.42,1.38-.53,2.87-.85,4.25l-2.23,9.46-.64,4.04c-.32,1.17-.43,2.44-.85,3.72-.32,1.27-.64,2.55-.85,3.93-.11,1.27-.43,2.55-.64,3.83-.43,2.66-.85,5.42-1.06,8.08-.11,1.49-.64,2.87-1.06,4.25-.21.42-.43,1.17-.96,1.17-1.38-.11-2.66.53-3.08-.42-.21-.42-.53-1.38-.53-1.91,0-.96,0-1.27-.53-1.91-.11-.21-.21-.43-.21-.53-.21-2.34-1.49-4.25-1.91-6.48-.43-2.23-1.49-4.25-1.7-6.48-1.17-3.08-1.17-6.48-2.34-9.56-.42-.96-.53-2.13-.74-3.19,0-.32-.11-.74-.21-1.06-.53-1.06-.74-2.23-1.06-3.4-.64-2.76-.96-5.31-1.7-8.08l-1.59-6.16-.32-.53c0,.21-.32-.11-.32.11-.11.53-.11,1.59,0,2.13.21,1.17-.32,2.13-.11,3.19.21.96.11,2.02.11,2.98,0,1.06.11,2.13.11,3.29-.11,1.06-.32,2.02-.32,3.08-.11.64-.32,1.27-.11,1.81.64,2.02.21,4.04.42,6.16,0,.43-.11.96-.21,1.38-.21.42-.21.74-.11,1.17.43,1.49.53,3.08-.11,4.57-.11.21-.11.42-.11.64.21,2.87-.32,5.74.21,8.61.11.53,0,1.06,0,1.59,0,.21-.21.43-.11.53.74,2.02.32,4.15.32,6.16.11,2.13.32,5.21.11,7.33v.53c.11.53-.11,1.17.43,1.38.21.11.64-.21,1.06-.21,1.17-.11,2.45-.11,3.61-.11.21,0,.32.21.43.42.11,0,.11.21.11.21,0,3.72.42,3.29-2.87,3.4-1.59,0-3.19-.21-4.68.43-.21.11-.42.11-.53.11-1.59-.85-3.19-.32-4.78-.53Z"/>
      <path class="cls-3" d="M430.3,149.49c-.21-.42-.43-.96-.53-1.38-.21-.74.11-1.27.74-1.27,1.49-.11,2.98-.11,4.46-.11.64,0,.96-.53.96-1.17-.11-1.06-.32-2.23-.32-3.29,0-2.02-.21-5.31.32-6.38-.11-.85-.43-4.36-.32-6.59.11-1.17,0-2.34,0-3.4,0-1.7,0-3.29.43-4.89-.53-1.17-.32-2.34-.32-3.51v-11.8c0-.96-.64-3.83,0-3.93.53-.11-.11-3.19-.11-4.78v-8.61c0-.64.53-1.17.21-1.91-.32-.74-.11-1.59-.11-2.34v-2.13c0-.64-.11-1.38-.11-2.02-.11-.85-.32-1.06-1.17-1.06-1.06,0-2.13.11-3.19.11-.43,0-.85-.21-.96-.64-.21-.53-.43-.96-.53-1.38-.21-.74.32-1.49,1.06-1.49.85-.11,1.81-.11,2.66-.21h5.95c2.02,0,4.14.11,6.27,0,.96,0,2.02.42,2.98,0,.53-.32,1.81,0,2.44,0,1.06.11,1.17.64,1.17,1.81.11.74-.21,1.59-.85,1.59-1.27.21-2.44.11-3.61.21-.53.11-.74.42-.74.85.21,1.91-.43,3.93.43,5.85.11.42,0,.96,0,1.49,0,3.93-.53,7.87,0,11.8.11.85-.43,1.59,0,2.34.11.32.11.85,0,1.17-.53.96.21,1.91.11,2.87-.53,4.68.11,11.8-.42,13.92,0,.96.42,2.02.42,2.98s.21,1.27-.42,2.76c.32,1.28.42,3.61.42,5.42,0,2.76.43,7.44,0,8.18.32,1.06-.11,3.4-.11,5.1,0,.64,0,1.38.11,2.02,0,.32.21.53.64.53h3.83c.96.11,1.49.96,1.27,1.91,0,.21-.11.43-.21.53-.43,1.06-.53,1.17-1.49,1.17-2.55,0-5.1,0-7.65.11-.96,0-1.81-.21-2.66.21-.11.11-.43.21-.53.11-1.59-.74-3.19-.32-4.68-.32-.96-.11-1.81-.11-2.66.32-.53.21-1.17.11-1.81.11s-1.06-.32-1.38-.85Z"/>
      <path class="cls-3" d="M471.75,150.02c-3.19.11-5.31-2.02-7.65-3.61-.32-.21-.64-.53-.85-.85-.32-.53-.53-1.06-1.06-1.27-.32.32-.64.74-.85,1.17-.53,1.06-.64,2.55-1.17,3.51-.53,1.06-1.38,1.28-2.44.85-.32-.11-.64-.32-.64-.85.11-1.38-.32-2.98.32-4.36.11-.11.11-.21.11-.32-.11-2.34.21-4.57,0-7.01-.32-2.66,0-4.89,0-7.55l.11-1.59c.11-.74-.32-1.59.43-1.81s2.13-.32,2.87,0c.32.21.74.42.53.96-.11.53.21,1.06.21,1.59,0,1.06-.21,2.23.32,3.19.11.32.21.64.21.96.21,2.44,1.27,4.46,2.13,7.33.96,2.23,2.66,4.14,4.78,5.63.74.53,1.7.96,2.76,1.06,1.17.11,2.44.43,3.72,0l1.59-.64c1.49-.64,2.02-2.02,2.44-3.4.21-.74.32-1.49.53-2.34,0-.21.11-.64,0-.85-.74-1.7-.64-2.87-1.38-4.57-.32-.85-.43-1.81-.64-2.66-.11-.32-.32-.74-.53-1.06-1.17-1.7-2.44-3.29-3.61-5-1.59-2.23-3.08-4.46-4.46-6.8-.74-1.38-2.55-3.3-2.55-3.93.11-.64-2.66-4.04-3.93-6.06,0-.96-1.27-1.7-1.17-2.13.32-.64-1.91-2.55-2.34-5.74-1.59-3.93-1.7-5.1-1.7-8.93v-1.17c-.32-2.66.85-4.78,1.49-7.23.53-2.13,2.13-4.68,3.61-5.95,1.49-1.28,2.76-2.02,4.46-2.98.43-.32,1.06-.64,1.59-.64,1.91,0,3.72-.42,5.63.43.53.21.64.53,1.17.64,1.81.32,2.55.96,3.72,2.34.32.32.53.96.96,1.38.53.53.74.53.96-.11.11-.64.32-1.17.53-1.7.21-.74.53-1.49,1.17-2.02.32-.32.64-.42,1.06-.21.42.32,1.17-.32,1.49.43.21.21.32.64.21.85-.53.96-.32,2.13-.42,3.19,0,1.17.11,2.34-.21,3.51-.32.96-.32,2.13.11,3.19.53.96.43,2.02.21,2.87-.32,1.27-.21,2.55-.32,3.83,0,.96.11,2.02-.32,2.98-.11.32.32.85-.21,1.27-.64.43-1.28.43-2.02.32-.32-.11-1.38-.21-1.49-.53-.21-1.38-.53-2.87-.64-4.36-.11-1.91-.43-3.51-1.17-5.63-.43-1.38-1.38-4.14-1.81-5.63-.42-1.38-1.91-3.08-4.04-3.08-1.17-.74-2.23-.21-3.4.32-1.59.53-2.98,2.13-3.72,3.93-.64,1.81-.64,3.93-.85,5.85-.11,1.06.74,2.98.96,3.93.21,1.49,2.44,4.14,2.87,5.63.53,1.59,1.59,1.7,2.44,3.08,1.06,1.91,1.91,2.76,3.08,4.68.21.32.32.74.64,1.06,1.81,1.81,2.66,4.36,4.36,6.38.43,1.28,1.81,1.81,2.23,3.08,2.02,2.34,2.87,5.21,3.72,8.08.32,1.38.64,2.66.75,4.04.21,1.49.74,2.87.64,4.46-.21,2.34-.21,4.78-.53,7.23-.32,1.59-.74,3.19-1.91,4.46-.85,1.06-1.27,2.23-2.23,3.08-.64.43-1.17.96-2.02,1.17-1.49.53-2.87,1.27-4.46,1.17-1.49-.11-2.98.21-4.36-.53Z"/>
      <path class="cls-3" d="M498.11,148.96c-.11-.53-.11-1.17-.11-1.81,0-.42.43-.64.74-.85.11,0,.21-.11.21-.11,1.06.85,2.34-.74,3.4.11.21.21.53.21.85.32.32,0,.74-.32.85-.64v-.96c.43-3.51.11-6.7.11-10.1,0-.96.21-2.02-.32-2.87.64-.96.32-2.02.43-2.98,0-.74.21-1.59-.21-2.34-.21-.32,0-.74.11-1.06.11-.64.32-1.27.11-1.81-.43-1.06.11-2.02-.11-3.08-.11-.74.11-1.49.21-2.23,0-.74-.32-1.49-.32-2.23.11-4.15.53-9.03.21-13.07-.32-4.78.32-8.5.43-12.75,0-.74-.32-1.49-.32-2.13,0-1.38.11-2.76.11-4.14-.11-1.27-.32-2.76-.21-4.04.11-.43-.85-.64-1.27-.64-.64,0-1.17.21-1.7.21-1.27-.11-1.59,0-1.81.85-.11.32-.11.64-.21.85-1.59,2.87-1.91,6.06-2.87,9.03-.21.32-.11.74-.32,1.17-.53,1.06-.85,2.13-1.06,3.3-.21,1.38-.53,1.7-2.02,1.7-.96,0-1.06,0-1.17-.85-.11-.85-.85-1.59-.11-2.55.11-.21.11-.74-.11-1.17-.64-1.7.11-3.72-.64-5.42.96-1.27-.11-2.44.32-3.72.32-1.28.11-2.55.11-3.93,0-.74,0-1.59.11-2.34,0-.32.11-.85.64-.53.74.32,1.38.32,2.02,0,.95-.43,2.02-.32,2.98-.32,4.36-.11,8.72-.11,13.07-.11,1.06,0,2.12,0,3.19-.32,1.06.64,1.91-.32,2.87-.11,3.08.53,6.27.11,9.78.42.42,0,.96-.21,1.38,0,1.17.43,1.38.64,1.38,1.91,0,1.7.21,3.83.21,5.63-.11,1.28-.11,2.55,0,3.83.11,1.27,0,2.55,0,3.83.11,1.81-.11,3.19-.21,5-.11.11-.21.42-.32.42-.85.32-1.06.64-1.81.21-.21-.11-.74-.11-.85-.32-.11-.32-.32-.85-.43-1.27,0-.53.11-1.06-.11-1.49-1.49-3.61-1.91-7.44-3.51-11.05-.21-.74-.53-1.49-.85-2.23-.32-.64-1.17-1.06-2.13-.85-.53.11-1.17-.11-1.7,0-.32,0-.64.21-.64.53.11,1.28-.74,2.45-.21,3.72-.42,1.17-.21,2.34,0,3.4.21,1.17-.32,2.34-.21,3.51,0,.85.21,1.7.11,2.55-.11.74.11,1.59-.11,2.34-.21.74-.21,1.38.21,1.91.32.64.53,1.27.43,1.91-.21,1.7.21,3.4-.53,5v.32c.74,1.06-.11,2.13.11,3.08.21.85-.64,1.59-.11,2.34.32.64.32,1.28,0,1.91.53,1.06.32,2.02-.11,3.08-.21.53-.11,1.17-.11,1.81-.21,3.08.11,6.16-.53,9.14.32,1.81.21,3.51.21,5.31-.11,1.7-.11,3.29-.11,5,.11.96,0,2.02.32,2.98.21.64.11,1.38.11,2.02v4.14c0,.74.11.53,1.17.85,1.27.43,2.66-.42,3.93.32.64.43.85.43.85,1.27-.11,1.59-.64,2.23-2.13,2.34h-3.61c-2.13,0-4.04-.32-6.59,0-3.08-.32-6.27,0-9.46,0h-.85c-.64-.11-1.17-.53-1.17-1.17Z"/>
      <path class="cls-3" d="M554.98,149.49c-1.28,0-2.55.11-3.83.11-.43-.11-.85-.21-.85-.74v-.96c0-2.44,0-1.59,1.7-1.91,1.06-.21,2.02.11,3.08,0,.32-.11.53-.32.53-.64,0-5.31.32-10.73-.11-15.84v-5.63c0-6.8.11-13.71.11-20.51,0-.64.32-1.17.32-1.7s-.21-1.17-.32-1.7c0-.74.32-1.38.43-2.02,0-.53-.53-1.27-.32-1.7.74-2.23-.74-4.46.21-6.59-.64-2.55-.21-5.31-.32-7.97v-16.05c0-.53,0-1.17-.11-1.81,0-.32-.21-.42-.53-.53h-3.3c-.53-.11-.85-.43-.85-1.06-.11-.42-.11-.96,0-1.38,0-.32.21-.96.53-1.06.74,0,1.7.11,2.34.11.74,0,1.38.32,2.13,0,.43-.21.96-.11,1.49-.21,2.02,0,4.14-.11,6.17-.11,4.68,0,11.9.53,16.47.11.64,0,1.17.11,1.81.21.64.21.85.64.96,1.7.43,2.87.32,5.85.43,8.82,0,.42-.11.85,0,1.17.74,1.7.42,3.51.53,5.31.21,2.02-.74,2.02-2.34,1.81-.21-.11-.53-.21-.53-.32-.43-.96-1.49-1.59-1.38-2.87.11-.74-.21-1.38-.43-2.02-.53-1.28-.85-2.55-1.38-3.83-.53-1.17-1.06-2.34-1.27-3.61-.11-.74-.64-1.28-.85-1.91s-.74-.74-1.38-.85c-1.59-.43-4.25,0-5.1,0q-1.38,0-1.06,1.49c.11.32.11.74.11,1.17v10.41c0,.74.11,1.59-.21,2.34-.11.11-.11.32-.11.53.64,1.91.11,3.93.32,5.85,0,.96.11,2.02-.42,2.98-.11.11-.11.32-.11.53-.32.96.74,1.7.21,2.87-.43.74-.21,1.7-.21,2.66v2.98c0,.53.43.21.74.32,1.06.32,2.02.42,3.08-.11.53-.21,2.55,0,2.98-.32.64-.53.32-1.49.21-2.23,0-.85.32-1.7.21-2.66-.11-.21.11-.64.32-.74.85-.21,1.7-.32,2.55.11.32.21.64.53.64.96.11,1.59.11,3.08,0,4.68,0,.85-.21,1.81-.11,2.55.21,2.55,0,4.89,0,7.55,0,.53-.32.85-.85,1.06-.75.32-1.49.21-2.34.11-.11,0-.32-.32-.32-.43v-2.44c0-1.06.32-2.13.32-3.19,0-.43,0-.85-.21-1.17-.32-.32-.74.11-1.06.11-1.49,0-3.93,0-5.42.11-.64,0-.85.21-.85.85,0,4.68.11,9.35.11,13.92,0,.53.21.96.32,1.49.11.85.32,1.81,0,2.66-.21.53.11,1.27-.32,1.91-.21.42.32,1.06.43,1.59.11.42.11.85.11,1.27-.11,1.49-.21,3.08-.11,4.57s.11,2.98.11,4.46c0,3.4-.53,6.48,0,10.1v.96c0,.53.32.85.85.85h4.78c.85,0,1.17.21,1.17,1.27v.53c-.11,1.7-.11,1.81-1.91,1.81-2.55,0-6.06,0-8.61-.11-1.59,0-3.08.21-4.68.53-1.49-.64-3.08-.53-4.68-.53Z"/>
      <path class="cls-3" d="M580.7,149.6c-.43-.64-.11-1.49-.21-2.23-.11-.21.53-.74.64-.64.96.74,2.02-.32,3.08.11.21.11.43-.21.43-.53.21-.85.43-1.7.53-2.98.21-2.44,1.06-4.78,1.27-7.23.43-1.06.32-2.34.53-3.4.42-1.59.64-3.29,1.06-4.89s.43-3.29.64-4.89c.32-2.13.74-4.25,1.17-6.38.53-2.44,1.28-5,1.7-7.44.85-5,1.28-9.99,2.34-14.99.74-3.51,1.06-7.01,1.91-10.52-.11-1.7.64-3.29.64-5,0-.74.32-2.02.53-2.66.11-.64.64-.85,1.38-.64.32.11,1.17.21,1.49,0,.95-.43,1.59-.21,2.66-.11.53.11,1.17.21,1.17.85,0,1.49.96,3.61.74,5.1-.11.53.21.96.32,1.38.85,2.87,1.49,5.85,1.81,8.82.11,1.91.64,3.72.96,5.53.64,3.08,1.49,6.16,2.13,9.35.64,3.08,1.27,6.27,2.12,9.35,0,1.38.43,2.76.85,4.04.32,1.17,0,2.55.64,3.72,0,2.13.42,4.25,1.59,6.06l.96,4.57c.11.11,0,.42.11.53,1.06,2.34.96,5,1.81,7.44l.85,3.4c.11.32.32.74.53.96.21.32.53-.11.85-.11.85.11,1.7-.32,2.23.21.53.74.21,1.91.11,2.87-.11.42-.85.96-1.27.74-.85-.43-1.7-.11-2.55,0-.74.11-1.49.11-2.23-.21-.96-.42-1.91-.32-2.87.11-.64.21-1.38.32-1.91.11-.85-.21-1.59-.64-2.34,0-.11.11-.43.11-.53,0-1.59-.74-3.29-.32-4.89-.43-.32,0-.64-.11-.74-.53-.11-.42-.32-.74-.43-1.17-.11-.64.11-1.7.64-1.7,1.06-.11,2.34-.32,3.4-.21.43.11.64-.43.53-.74-.53-2.34-.96-4.78-1.38-7.12-.64-2.98-1.7-5.74-1.81-8.82-.11-.53-.64-1.06-1.06-1.06-.43-.11-.85,0-1.28-.11-.74-.11-1.27.64-1.91.53-.53-.11-1.06-.32-1.7-.42-.21-.11-.43-.11-.64,0-1.59.64-3.61.11-5.21.11-.64,0-.85.74-1.06,1.49-.11.53-.43,1.17-.43,1.7-.11,2.66-.85,5.21-1.27,7.76-.32,1.59-.21,3.83-.85,5.42,0,.32-.21.85-.21,1.28.11.21.11.32.21.42,1.27,0,2.44.53,3.61.11.74-.21.85-.21.96.74.11.53.42,1.06.11,1.7-.43.85-.96.64-1.59.85-.21.21-.64.11-.96.11h-2.55l-.64.11c-1.38,0-2.66,0-3.93.11-.43,0-1.06.53-1.49.21-.53-.21-1.06-.32-1.27-.74ZM597.28,124.51h4.68c.53,0,.74-.32.64-.96,0-.42,0-.74-.11-1.17-.53-2.66-1.27-5.31-2.02-7.86-.85-2.76-1.38-5.63-1.81-8.5-.32-2.66-.85-5.21-1.49-7.65-.11-.21-.21-.32-.32-.43,0,.11-.11.21-.11.21-.11.64-.21,1.17-.21,1.81-.21.64-.21,1.38-.43,2.02-.11.53-.32,1.17-.53,1.59-.43.64.11,1.28-.11,1.91-.43,1.49-.64,3.08-.85,4.68-.11,1.49-.74,2.87-.96,4.46-.32,2.34-.85,4.57-1.06,6.91-.11.85-.74,1.81-.32,2.55.53.96,1.49.32,2.23.43.96.11,1.91,0,2.76,0Z"/>
      <path class="cls-3" d="M620.98,149.91c-.21,0-.53-.21-.64-.43-.53-.64-.64-2.23-.21-2.76.11-.21.32-.32.53-.32.43-.11,1.49,0,2.02-.11.96-.21,1.91.11,2.87-.11.53-.96.21-2.55.21-3.51,0-1.06.21-2.13-.43-3.19v-.32c.74-1.17-.11-2.44-.11-3.72,0-.32,0-.74.11-1.17.96-2.98.32-6.06.43-9.03-.53-1.06-.32-2.13-.11-3.19.21-.74.11-1.59-.11-2.34-.21-.64.43-1.28-.11-1.91-.43-.64,0-1.17.21-1.7.11-.21,0-.53,0-.85,0-.96-.43-1.7-.43-2.66,0-.85.53-1.7,0-2.55.32-1.06.21-2.02,0-3.08-.21-.96,0-2.02,0-2.98v-15.62c-.11-1.06,0-2.13-.43-3.19-.32-.64-.11-1.59-.11-2.34.11-.32.21-.53.21-.85-.21-.74-.11-1.7-.53-2.23-.53-.64-1.49-.21-2.23-.21h-.32c-2.13.11-2.66-.43-2.55-2.55,0-.64.32-.96.85-.96,3.72-.32,7.44-1.17,11.16-.32.11,0,.32,0,.53-.11,1.7-.32,3.3-.42,5,.11.64.21,1.38.21,2.02.11,1.27-.11,4.25.11,5.31.74,2.23,1.28,6.27,1.06,7.44,3.51.53,1.17,3.19,3.29,3.51,4.57.32,1.06.74,2.23,1.06,3.4.32,1.38.43,2.44.85,4.57.32,1.49.21,2.98.32,4.46.11,3.08-1.7,7.12-3.19,9.57-.85,2.87-3.72,4.46-6.48,5.74-.74.32-4.04.96-4.78,1.28-1.06.64-1.49.21-1.06,1.38,2.02.74,5.95,1.28,6.27,2.02,1.59.74,2.02,2.23,2.66,3.19.11.64.32,1.27.53,2.02.74,2.76,1.91,5.53,2.55,8.4.11.53.42,1.06.42,1.7.11.85.43,1.7.74,2.55.64,1.49,1.28,3.08,1.59,4.68.21.85.43,1.81.85,2.55.43.74.32,1.81,1.17,2.34.74.53,1.17,1.38,2.02,1.49.32.11,1.06.32,1.49.32.53.32,1.17-.21,1.59.53.43.74.53,1.38.21,2.23-.21.42-.21.74-.74.85-.32.11-.64.21-.85.11-.32-.11-5.85-.32-6.06-.11h-2.98c-.74,0-2.87-.85-3.4-1.38-.64-.64-1.81-1.81-2.02-2.87-.21-.74-.53-1.49-.96-2.23-1.27-2.45-1.38-3.29-2.13-5.95-.96-3.19-1.7-6.38-2.66-9.57l-1.59-4.46c-.53-1.38-1.06-2.76-1.17-4.25-.32-1.06-.85-2.87-1.17-3.51-.21-.21-.53-.21-.85-.11-.11,0-.21.21-.32.43v2.44c0,.85-.11,1.7,0,2.66,0,.74-.74,1.38-.21,2.23.42.74-.21,1.7.21,2.44-.53.85,0,1.81,0,2.66-.11.74-.42,1.49-.21,2.23.64,2.87.21,5.74.21,8.61v5.63c0,.64.32.85.96.85.96.11,2.02,0,2.98.11.96,0,1.38.42,1.38,1.49.11.21,0,.32.11.53,0,1.06-.85,2.13-1.81,1.91-1.27-.32-2.44,0-3.61,0-2.23.11-4.36.11-6.59.21-.53,0-.96.32-1.59,0-.64-.32-4.04,0-6.06,0-.43,0-1.38,0-1.81-.11ZM639.15,111.55c1.38-.96,2.55-.85,4.14-2.34.85-.53,1.17-1.49,1.59-2.34.11-.11.11-.32.21-.53.53-1.38,1.06-1.49,1.59-2.87.21-.53,0-1.17.32-1.7.32-.85-.43-1.7.21-2.55.32-.43.11-1.17.11-1.28.11-1.81.32-5.1,0-6.48-.43-2.44-1.06-3.4-1.38-5.85-.21-1.06-.96-1.49-1.38-2.45-.85-1.91-2.45-2.98-4.25-3.4-.96-.32-2.02-.53-2.87-.21-.32,0-.53-.11-.53.32-.11.43,0,1.38,0,1.91v3.29c-.11,1.06-.11,2.13-.21,3.19,0,1.06.53,2.55.21,4.25-.32,1.06.32,2.13-.21,3.08.74,1.06-.21,2.02-.11,3.08.11,2.55-.21,5.1.21,7.65.11,1.17.32,1.06-.11,2.23-.32.74-.11,1.7-.11,2.66,0,.21.21.53.53.53.74-.11,1.49.11,2.02-.21Z"/>
      <path class="cls-3" d="M662.22,149.91c-.53,0-1.06-.53-1.17-1.06-.11-.32,0-.53,0-.85,0-1.06.32-1.49,1.27-1.59h2.76c.64,0,1.17-.64.85-1.17-.53-1.17-.43-3.4-.43-4.57s.11-2.34.43-3.51c.21-1.28.11-2.76-.11-4.14-.21-.74-.32-1.49-.32-2.23,0-6.38.53-13.92,0-19.02,0-5.63-.11-11.37-.11-17.01,0-1.28,0-2.55.42-3.83.11-.21.21-.64.11-.85-.43-.96-.11-2.02-.32-3.08-.21-1.06-.11-2.13-.11-3.29v-3.19c0-.21-.11-.11-.11-.32,0-.43-.32-.64-.74-.64-.74-.11-1.49,0-2.23-.11-.85,0-1.38-.53-1.49-1.49v-.85c0-.74.21-1.06.96-1.17,2.55-.64,5.21-.64,7.65-.53h5.53c1.17-.11,1.81.64,2.12,1.59.53,1.7,1.06,3.29,1.28,4.78.11.53.21,1.17.42,1.7.64,1.7.64,3.08.96,4.89.11.96.32,1.81.64,2.55,1.06,2.02.85,4.25,1.38,6.38.21,1.06,1.06,2.44,1.17,3.51.11.64.43,1.17.43,1.81.21,1.59.64,3.19,1.06,4.78.32,1.38.74,2.55.95,3.93.21,1.28.96,2.55,1.06,3.93,0,.21.11.32.21.53.11-.21.21-.32.21-.53.21-.53.42-1.06.53-1.7.74-3.61,1.27-7.23,2.23-10.84.64-2.02,1.17-3.93,1.27-6.06,0-.32.11-.53.11-.85,1.38-4.46,1.38-8.93,2.98-13.39.43-1.27.53-2.76.74-4.04.11-.64-.11-1.27.43-1.7.74-.53,1.38-1.06,2.34-1.06,2.87,0,5.95-.74,9.99,0,1.49,0,2.98,0,4.46.11h1.17c.42.11.96.96.85,1.38-.21.53-.43,1.06-.43,1.7-.11.64-.32.96-.96.96-.74,0-1.49,0-2.12-.32-.43-.21-.96-.11-1.38-.11-.32,0-.53.21-.64.53v1.17c0,1.28-.21,2.66.11,3.83.21,1.28-.11,2.34-.21,3.51,0,1.28.43,2.66.11,4.04-.21,1.27,0,2.76,0,4.14v7.97c0,.85-.11,1.59.32,2.34.11.21,0,.64-.11.85-.53,2.23-.11,4.57-.21,6.8.74,1.59.53,3.29.53,5,.11,2.34,0,4.68,0,7.12,0,.96-.21,2.02.42,2.87v.32c0,1.17-.32,2.34-.11,3.4.11,1.17.32,2.13-.11,3.19,0,.21-.11.42-.11.64.74,2.34.21,4.89.43,7.33v.85c.11.32.32.53.64.53.53.11,1.06.11,1.59-.11.43-.21.96-.21,1.38-.32.53-.11.96.11,1.27.53.21.32.21.74,0,1.17,0,0-.11.11-.11.21.11.64.64,1.38,0,1.91-.53.32-1.27.32-1.91.32-.85,0-1.59.43-2.45.11-.32-.21-.85-.21-1.06,0-1.27.64-2.66.32-3.93.53-1.17.11-2.44-.21-3.61.32-1.06-.53-2.23-.32-3.4-.42-1.17,0-2.44.11-3.61.11-1.38,0-2.02-1.06-1.49-2.44,0-.11.11-.21.11-.32.32-.85.43-.85,1.17-.96h1.38q1.49,0,1.49-1.7c0-2.02.21-3.93-.43-5.85.21-2.87.32-5.63,0-8.93-.11-3.08-.11-6.16-.11-9.25-.53-1.17,0-2.34,0-3.4,0-2.23.11-4.36.11-6.59.96-6.8-.11-11.48-.11-17.22l.21-3.72c0-.11-.32-.11-.43-.21-.11.11-.21.21-.21.32-.11,1.27-.96,5.31-1.38,6.7-.43,1.38-.53,2.87-.85,4.25l-2.23,9.46-.64,4.04c-.32,1.17-.43,2.44-.85,3.72-.32,1.27-.64,2.55-.85,3.93-.11,1.27-.43,2.55-.64,3.83-.43,2.66-.85,5.42-1.06,8.08-.11,1.49-.64,2.87-1.06,4.25-.21.42-.43,1.17-.96,1.17-1.38-.11-2.66.53-3.08-.42-.21-.42-.53-1.38-.53-1.91,0-.96,0-1.27-.53-1.91-.11-.21-.21-.43-.21-.53-.21-2.34-1.49-4.25-1.91-6.48-.43-2.23-1.49-4.25-1.7-6.48-1.17-3.08-1.17-6.48-2.34-9.56-.42-.96-.53-2.13-.74-3.19,0-.32-.11-.74-.21-1.06-.53-1.06-.75-2.23-1.06-3.4-.64-2.76-.96-5.31-1.7-8.08l-1.59-6.16-.32-.53c0,.21-.32-.11-.32.11-.11.53-.11,1.59,0,2.13.21,1.17-.32,2.13-.11,3.19.21.96.11,2.02.11,2.98,0,1.06.11,2.13.11,3.29-.11,1.06-.32,2.02-.32,3.08-.11.64-.32,1.27-.11,1.81.64,2.02.21,4.04.42,6.16,0,.43-.11.96-.21,1.38-.21.42-.21.74-.11,1.17.43,1.49.53,3.08-.11,4.57-.11.21-.11.42-.11.64.21,2.87-.32,5.74.21,8.61.11.53,0,1.06,0,1.59,0,.21-.21.43-.11.53.74,2.02.32,4.15.32,6.16.11,2.13.32,5.21.11,7.33v.53c.11.53-.11,1.17.43,1.38.21.11.64-.21,1.06-.21,1.17-.11,2.44-.11,3.61-.11.21,0,.32.21.43.42.11,0,.11.21.11.21,0,3.72.42,3.29-2.87,3.4-1.59,0-3.19-.21-4.68.43-.21.11-.43.11-.53.11-1.59-.85-3.19-.32-4.78-.53Z"/>
    </g>
  </g>
</svg>